<?xml version="1.0" encoding="UTF-8" standalone="no"?>
<!-- Created with Inkscape (http://www.inkscape.org/) -->

<svg
   xmlns:dc="http://purl.org/dc/elements/1.1/"
   xmlns:cc="http://creativecommons.org/ns#"
   xmlns:rdf="http://www.w3.org/1999/02/22-rdf-syntax-ns#"
   xmlns:svg="http://www.w3.org/2000/svg"
   xmlns="http://www.w3.org/2000/svg"
   xmlns:xlink="http://www.w3.org/1999/xlink"
   xmlns:sodipodi="http://sodipodi.sourceforge.net/DTD/sodipodi-0.dtd"
   xmlns:inkscape="http://www.inkscape.org/namespaces/inkscape"
   width="800"
   height="600"
   id="svg2"
   version="1.1"
   inkscape:version="0.48.2 r9819"
   sodipodi:docname="yuriko.svg">
  <defs
     id="defs4">
    <linearGradient
       inkscape:collect="always"
       id="linearGradient3015">
      <stop
         style="stop-color:#0044aa;stop-opacity:1;"
         offset="0"
         id="stop3017" />
      <stop
         style="stop-color:#5fd3bc;stop-opacity:1"
         offset="1"
         id="stop3019" />
    </linearGradient>
    <linearGradient
       inkscape:collect="always"
       id="linearGradient3015-9">
      <stop
         style="stop-color:#0044aa;stop-opacity:1;"
         offset="0"
         id="stop3017-4" />
      <stop
         style="stop-color:#5fd3bc;stop-opacity:1"
         offset="1"
         id="stop3019-4" />
    </linearGradient>
    <linearGradient
       inkscape:collect="always"
       xlink:href="#linearGradient3015-9"
       id="linearGradient4279"
       gradientUnits="userSpaceOnUse"
       gradientTransform="translate(631.28323,195.86217)"
       x1="80"
       y1="-83"
       x2="162"
       y2="155" />
    <linearGradient
       inkscape:collect="always"
       xlink:href="#linearGradient3015-9"
       id="linearGradient4281"
       gradientUnits="userSpaceOnUse"
       gradientTransform="translate(631.28323,195.86217)"
       x1="80"
       y1="-83"
       x2="162"
       y2="155" />
    <linearGradient
       inkscape:collect="always"
       xlink:href="#linearGradient3015"
       id="linearGradient4323"
       gradientUnits="userSpaceOnUse"
       x1="80"
       y1="-83"
       x2="162"
       y2="155" />
    <linearGradient
       inkscape:collect="always"
       xlink:href="#linearGradient3015"
       id="linearGradient4578"
       gradientUnits="userSpaceOnUse"
       x1="80"
       y1="-83"
       x2="162"
       y2="155"
       gradientTransform="translate(560,786.36217)" />
    <linearGradient
       inkscape:collect="always"
       xlink:href="#linearGradient3015"
       id="linearGradient3753"
       gradientUnits="userSpaceOnUse"
       x1="80"
       y1="-83"
       x2="162"
       y2="155" />
    <linearGradient
       inkscape:collect="always"
       xlink:href="#linearGradient3015"
       id="linearGradient3765"
       gradientUnits="userSpaceOnUse"
       x1="80"
       y1="-83"
       x2="162"
       y2="155"
       gradientTransform="matrix(-1,0,0,1,1070.4335,576.36217)" />
  </defs>
  <sodipodi:namedview
     id="base"
     pagecolor="#ffffff"
     bordercolor="#666666"
     borderopacity="1.0"
     inkscape:pageopacity="0.0"
     inkscape:pageshadow="2"
     inkscape:zoom="1.4142136"
     inkscape:cx="464.14979"
     inkscape:cy="297.92695"
     inkscape:document-units="px"
     inkscape:current-layer="layer1"
     showgrid="false"
     inkscape:window-width="1920"
     inkscape:window-height="990"
     inkscape:window-x="-3"
     inkscape:window-y="32"
     inkscape:window-maximized="1"
     showguides="true"
     inkscape:guide-bbox="true" />
  <metadata
     id="metadata7">
    <rdf:RDF>
      <cc:Work
         rdf:about="">
        <dc:format>image/svg+xml</dc:format>
        <dc:type
           rdf:resource="http://purl.org/dc/dcmitype/StillImage" />
        <dc:title />
      </cc:Work>
    </rdf:RDF>
  </metadata>
  <g
     inkscape:label="Layer 1"
     inkscape:groupmode="layer"
     id="layer1"
     transform="translate(0,-452.36217)">
    <g
       id="g4379">
      <path
         sodipodi:nodetypes="csssscsscscssssscc"
         inkscape:connector-curvature="0"
         id="path3091"
         d="m 268.29377,696.97022 c 0,-8.74103 17.23993,-113.88213 37.39927,-123.87188 20.15935,-9.98975 100.79673,-46.20259 106.39655,-17.48206 5.59982,28.72053 29.11905,9.98975 30.23902,54.94362 1.11996,44.95388 6.71978,89.90775 13.43956,93.65391 6.71978,3.74616 -14.55953,-6.24359 -14.55953,-6.24359 0,0 -7.83974,42.45643 0,53.6949 7.83975,11.23847 0,18.73078 -1.11996,13.73591 -1.11997,-4.99488 -14.55953,-29.96925 -14.55953,-29.96925 0,0 20.15935,82.41544 12.3196,97.40006 -7.83974,14.98463 -11.19964,21.22822 -11.19964,21.22822 0,0 -6.71978,-17.48206 -11.19963,-16.23334 -4.47986,1.24872 -30.23902,29.96925 -34.71887,8.74103 -4.47986,-21.22822 -26.87913,26.22309 -47.03848,3.74615 -20.15934,-22.47693 -42.99909,36.95388 -57.55861,-10.49743 -14.55953,-47.45132 2.54326,-42.1386 4.47985,-56.14622 1.7464,-12.63194 -35.12816,-26.67513 8.48076,-56.51281 0,0 -33.11996,4.7769 -20.80036,-30.18722 z"
         style="fill:#925900;fill-opacity:1;stroke:#000000;stroke-width:1.18259025px;stroke-linecap:butt;stroke-linejoin:miter;stroke-opacity:1" />
      <path
         style="fill:#784421;stroke:none;stroke-width:1.11940372000000021px;stroke-linecap:butt;stroke-linejoin:miter;stroke-opacity:1"
         d="m 282.41652,703.18696 c 0,-8.46994 2.0712,-111.31923 20.71196,-120.99916 18.64076,-9.67993 93.20381,-44.76968 98.3818,-16.93988 5.17799,27.82981 26.92554,9.67993 27.96115,53.23962 1.03559,43.5597 6.21358,87.11939 12.42717,90.74937 6.21358,3.62998 -13.46278,-6.04995 -13.46278,-6.04995 0,0 -7.24918,41.1397 0,52.02963 7.24919,10.88992 0,18.14987 -1.03559,13.30991 -1.03561,-4.83997 -13.46278,-29.0398 -13.46278,-29.0398 0,0 18.64077,79.85944 11.39158,94.37934 -7.24918,14.5199 -10.35598,20.56985 -10.35598,20.56985 0,0 -6.21359,-16.93988 -10.35598,-15.72988 -4.14239,1.20999 -27.96114,29.03979 -32.10353,8.46994 -4.14239,-20.56986 -24.85435,25.40981 -43.49512,3.62996 -18.64075,-21.77984 -25.88994,43.5597 -39.35271,-2.41997 -13.46277,-45.97969 1.0356,-84.69941 4.14239,-98.00932 3.10679,-13.30991 -21.74756,12.09992 -21.74756,12.09992 0,0 -1.03559,-25.40983 10.35598,-59.28958 z"
         id="path3097"
         inkscape:connector-curvature="0" />
    </g>
    <path
       style="fill:#000000;fill-opacity:1;stroke:none"
       d="m 302,738.36217 125,0 -18,137 -85,0 z"
       id="rect4376"
       inkscape:connector-curvature="0"
       sodipodi:nodetypes="ccccc" />
    <path
       style="fill:#ffb380;stroke:#000000;stroke-width:0.92583913px;stroke-linecap:butt;stroke-linejoin:miter;stroke-opacity:1"
       d="m 320,607.21935 c 61.77161,-36.10843 73.66923,-18.24845 86,-0.85718 l 3,49.71633 -28,52.28786 c -7.70933,4.94832 -10.86233,18.48894 -31,0 l -32,-41.14455 z"
       id="path2987"
       inkscape:connector-curvature="0"
       sodipodi:nodetypes="ccccccc" />
    <path
       style="fill:#ffb380;fill-opacity:1;stroke:#000000;stroke-width:1px;stroke-linecap:butt;stroke-linejoin:miter;stroke-opacity:1"
       d="m 349,250 34,5 c 0,0 -4,31 11,36 15,5 15,15 15,15 -18.70314,51.39918 -42.35105,66.53674 -77,1 0,0 -9,-20 7,-25 16,-5 10,-32 10,-32 z"
       id="path4327"
       inkscape:connector-curvature="0"
       transform="translate(0,452.36217)"
       sodipodi:nodetypes="ccsccsc" />
    <path
       sodipodi:nodetypes="ccsccsc"
       inkscape:connector-curvature="0"
       id="path4179"
       d="m 313.55683,604.21935 c 78.96973,-36.10843 94.17982,-18.24845 109.94366,-0.85718 0,0 8.1349,33.66074 3.83524,49.71633 -5.46397,20.4033 -35.79561,52.28786 -35.79561,52.28786 -9.85572,4.94832 -13.88656,18.48894 -39.63085,0 0,0 -33.916,-23.11282 -40.90927,-41.14455 -7.23865,-18.66443 2.55683,-60.00246 2.55683,-60.00246 z"
       style="fill:#ffb380;stroke:#000000;stroke-width:1.04681849px;stroke-linecap:butt;stroke-linejoin:miter;stroke-opacity:1" />
    <path
       style="fill:none;stroke:#000000;stroke-width:1px;stroke-linecap:butt;stroke-linejoin:miter;stroke-opacity:1"
       d="m 351,684.36217 c 0.79487,12.64103 7.54178,16.354 19,13"
       id="path2989"
       inkscape:connector-curvature="0"
       sodipodi:nodetypes="cc" />
    <path
       style="fill:none;stroke:#000000;stroke-width:1px;stroke-linecap:butt;stroke-linejoin:miter;stroke-opacity:1"
       d="m 371,648.36217 7,24 -11,3"
       id="path2991"
       inkscape:connector-curvature="0" />
    <g
       transform="matrix(-0.15073545,0,0,0.15073545,640.55706,578.6122)"
       id="g4121">
      <g
         transform="matrix(-1.1796934,0,0,1.1796934,2871.6558,95.038301)"
         id="g4123">
        <path
           style="fill:#e6e6e6;stroke:#000000;stroke-width:6;stroke-linecap:butt;stroke-linejoin:miter;stroke-opacity:1"
           d="m 841.28323,227.86217 c -89.60589,-55.68846 -3.50911,-39.63285 -177,-82 -38.3988,91.15476 -10.70642,138.24873 4,194 l 26,11 177,-10 c 2.88408,-50.31313 -8.78965,-70.12946 -30,-113 z"
           id="path4125"
           inkscape:connector-curvature="0"
           sodipodi:nodetypes="cccccc" />
        <path
           sodipodi:nodetypes="cccccc"
           inkscape:connector-curvature="0"
           id="path4127"
           d="m 828.58199,229.80302 c -44.13641,-30.17635 -2.95729,-39.00747 -149.16671,-80.7061 -32.36058,89.71641 -9.02283,136.06727 3.371,190.93882 l 21.9115,10.82643 149.1667,-9.84221 c 2.43056,-49.51922 -7.40747,-69.02287 -25.28249,-111.21694 z"
           style="fill:#ffffff;stroke:none" />
        <path
           style="fill:url(#linearGradient4279);fill-opacity:1;stroke:#4d4d4d;stroke-width:6;stroke-miterlimit:4;stroke-opacity:1;stroke-dashoffset:0"
           d="m 833.28323,265.36217 c 11.88559,52.83906 -16.63184,88.0645 -72.5,81.5 -35.92749,-4.22148 -43.5016,-34.98088 -58.5,-81.5 -22.74178,-70.53604 -3.53677,-119.79726 65.5,-88.5 32.94711,14.9363 54.77361,40.81431 65.5,88.5 z"
           id="path4129"
           inkscape:connector-curvature="0"
           sodipodi:nodetypes="sssss" />
        <path
           style="fill:#00ffff;fill-opacity:1;stroke:none"
           d="m 820.25652,313.09792 c -2.56785,16.67256 -21.38279,30.76425 -47.75981,30.76425 -26.37702,0 -36.21348,-29.82454 -36.21348,-46.81517 0,-16.99063 6.58301,18.28036 32.01482,9.36304 29.90344,-10.48525 56.78607,-24.65684 51.95847,6.68788 z"
           id="path4131"
           inkscape:connector-curvature="0"
           sodipodi:nodetypes="sssss" />
        <path
           style="fill:#000000;fill-opacity:1;stroke:#000000"
           d="m 810.28323,249.86217 c 0,29.27109 -18.80404,53 -42,53 -23.19596,0 -42,-23.72891 -42,-53 0,-29.27109 18.80404,47 42,47 23.19596,0 42,-76.27109 42,-47 z"
           id="path4133"
           inkscape:connector-curvature="0"
           sodipodi:nodetypes="cscsc" />
        <path
           style="fill:#ffffff;fill-opacity:1;stroke:none"
           d="m 828.28323,303.46204 c 0,13.47582 -1.88726,16.40013 -9.14954,16.40013 -7.26229,0 -4.11667,-15.43022 -13.14953,-24.40013 -22.64116,-22.48336 -11.28796,-21.6328 9.14953,-16.40014 7.07755,1.81208 13.14954,10.92431 13.14954,24.40014 z"
           id="path4135"
           inkscape:connector-curvature="0"
           sodipodi:nodetypes="sssss" />
        <path
           style="fill:#ffffff;fill-opacity:1;stroke:none"
           d="m 798.54469,228.74542 c 1.79005,1.55416 7.05626,7.902 5.76609,9.38798 -1.29016,1.486 -8.64814,-2.45257 -10.43818,-4.00672 -1.79005,-1.55415 -2.19529,-4.01867 -0.90513,-5.50466 1.29017,-1.486 3.78717,-1.43074 5.57722,0.1234 z"
           id="path4137"
           inkscape:connector-curvature="0"
           sodipodi:nodetypes="sssss"
           inkscape:transform-center-x="-6.1494789"
           inkscape:transform-center-y="5.4599109" />
        <path
           style="fill:#000000;stroke:#000000;stroke-width:1px;stroke-linecap:butt;stroke-linejoin:miter;stroke-opacity:1"
           d="m 840.28323,222.86217 -31,-21 -22,-24 -125,-36 c 0,0 -11,-8 -24,-1 -13,7 -15,8 -15,8 l 22,-21 -9,-6 c 0,0 152,34 204,101 z"
           id="path4139"
           inkscape:connector-curvature="0" />
        <path
           style="fill:#000000;stroke:#000000;stroke-width:1px;stroke-linecap:butt;stroke-linejoin:miter;stroke-opacity:1"
           d="m 677.28323,151.86217 -36,79 25,110 -40,-112 27,-91 z"
           id="path4141"
           inkscape:connector-curvature="0"
           sodipodi:nodetypes="cccccc" />
        <g
           transform="translate(631.28323,-256.5)"
           id="g4143">
          <path
             transform="translate(0,452.36217)"
             inkscape:connector-curvature="0"
             id="path4145"
             d="M 231,-8 226,6 -58,-137"
             style="fill:none;stroke:#000000;stroke-width:4;stroke-linecap:butt;stroke-linejoin:miter;stroke-opacity:1" />
          <path
             sodipodi:nodetypes="cc"
             inkscape:connector-curvature="0"
             id="path4147"
             d="m 25,357.36217 c -45.764127,-5.4519 -65.54671,-0.20551 -66,13"
             style="fill:none;stroke:#000000;stroke-width:3;stroke-linecap:butt;stroke-linejoin:miter;stroke-opacity:1" />
        </g>
      </g>
      <g
         transform="matrix(1.1796934,0,0,1.1796934,757.96914,95.038301)"
         id="g4149">
        <path
           style="fill:#e6e6e6;stroke:#000000;stroke-width:6;stroke-linecap:butt;stroke-linejoin:miter;stroke-opacity:1"
           d="m 841.28323,227.86217 c -89.60589,-55.68846 -3.50911,-39.63285 -177,-82 -38.3988,91.15476 -10.70642,138.24873 4,194 l 26,11 177,-10 c 2.88408,-50.31313 -8.78965,-70.12946 -30,-113 z"
           id="path4151"
           inkscape:connector-curvature="0"
           sodipodi:nodetypes="cccccc" />
        <path
           sodipodi:nodetypes="cccccc"
           inkscape:connector-curvature="0"
           id="path4153"
           d="m 828.58199,229.80302 c -44.13641,-30.17635 -2.95729,-39.00747 -149.16671,-80.7061 -32.36058,89.71641 -9.02283,136.06727 3.371,190.93882 l 21.9115,10.82643 149.1667,-9.84221 c 2.43056,-49.51922 -7.40747,-69.02287 -25.28249,-111.21694 z"
           style="fill:#ffffff;stroke:none" />
        <path
           style="fill:url(#linearGradient4281);fill-opacity:1;stroke:#4d4d4d;stroke-width:6;stroke-miterlimit:4;stroke-opacity:1;stroke-dashoffset:0"
           d="m 833.28323,265.36217 c 11.88559,52.83906 -16.63184,88.0645 -72.5,81.5 -35.92749,-4.22148 -43.5016,-34.98088 -58.5,-81.5 -22.74178,-70.53604 -3.53677,-119.79726 65.5,-88.5 32.94711,14.9363 54.77361,40.81431 65.5,88.5 z"
           id="path4155"
           inkscape:connector-curvature="0"
           sodipodi:nodetypes="sssss" />
        <path
           style="fill:#00ffff;fill-opacity:1;stroke:none"
           d="m 820.25652,313.09792 c -2.56785,16.67256 -21.38279,30.76425 -47.75981,30.76425 -26.37702,0 -36.21348,-29.82454 -36.21348,-46.81517 0,-16.99063 6.58301,18.28036 32.01482,9.36304 29.90344,-10.48525 56.78607,-24.65684 51.95847,6.68788 z"
           id="path4157"
           inkscape:connector-curvature="0"
           sodipodi:nodetypes="sssss" />
        <path
           style="fill:#000000;fill-opacity:1;stroke:#000000"
           d="m 810.28323,249.86217 c 0,29.27109 -18.80404,53 -42,53 -23.19596,0 -42,-23.72891 -42,-53 0,-29.27109 18.80404,47 42,47 23.19596,0 42,-76.27109 42,-47 z"
           id="path4159"
           inkscape:connector-curvature="0"
           sodipodi:nodetypes="cscsc" />
        <path
           style="fill:#ffffff;fill-opacity:1;stroke:none"
           d="m 726.02776,303.46204 c 0,13.47582 1.88726,16.40013 9.14954,16.40013 7.26229,0 4.11667,-15.43022 13.14953,-24.40013 22.64116,-22.48336 11.28796,-21.6328 -9.14953,-16.40014 -7.07755,1.81208 -13.14954,10.92431 -13.14954,24.40014 z"
           id="path4161"
           inkscape:connector-curvature="0"
           sodipodi:nodetypes="sssss" />
        <path
           style="fill:#ffffff;fill-opacity:1;stroke:none"
           d="m 724.29469,228.74542 c 1.79005,1.55416 7.05626,7.902 5.76609,9.38798 -1.29016,1.486 -8.64814,-2.45257 -10.43818,-4.00672 -1.79005,-1.55415 -2.19529,-4.01867 -0.90513,-5.50466 1.29017,-1.486 3.78717,-1.43074 5.57722,0.1234 z"
           id="path4163"
           inkscape:connector-curvature="0"
           sodipodi:nodetypes="sssss"
           inkscape:transform-center-x="-6.1494789"
           inkscape:transform-center-y="5.4599109" />
        <path
           style="fill:#000000;stroke:#000000;stroke-width:1px;stroke-linecap:butt;stroke-linejoin:miter;stroke-opacity:1"
           d="m 840.28323,222.86217 -31,-21 -22,-24 -125,-36 c 0,0 -11,-8 -24,-1 -13,7 -15,8 -15,8 l 22,-21 -9,-6 c 0,0 152,34 204,101 z"
           id="path4165"
           inkscape:connector-curvature="0" />
        <path
           style="fill:#000000;stroke:#000000;stroke-width:1px;stroke-linecap:butt;stroke-linejoin:miter;stroke-opacity:1"
           d="m 677.28323,151.86217 -36,79 25,110 -40,-112 27,-91 z"
           id="path4167"
           inkscape:connector-curvature="0"
           sodipodi:nodetypes="cccccc" />
        <g
           transform="translate(631.28323,-256.5)"
           id="g4169">
          <path
             transform="translate(0,452.36217)"
             inkscape:connector-curvature="0"
             id="path4171"
             d="M 231,-8 226,6 -58,-137"
             style="fill:none;stroke:#000000;stroke-width:4;stroke-linecap:butt;stroke-linejoin:miter;stroke-opacity:1" />
          <path
             sodipodi:nodetypes="cc"
             inkscape:connector-curvature="0"
             id="path4173"
             d="m 25,357.36217 c -45.764127,-5.4519 -65.54671,-0.20551 -66,13"
             style="fill:none;stroke:#000000;stroke-width:3;stroke-linecap:butt;stroke-linejoin:miter;stroke-opacity:1" />
        </g>
      </g>
    </g>
    <path
       style="fill:#784421;fill-opacity:1;stroke:#000000;stroke-width:1px;stroke-linecap:butt;stroke-linejoin:miter;stroke-opacity:1"
       d="m 409,582.36217 c 19.44159,34.07503 1.39287,125.98015 -3,168 7.72161,-36 46.95591,-128 26,-164"
       id="path3093"
       inkscape:connector-curvature="0"
       sodipodi:nodetypes="ccc" />
    <g
       transform="matrix(-0.12867398,-0.05074913,-0.05074913,0.12867398,395.18016,458.34619)"
       id="g4482">
      <path
         style="fill:none;stroke:#000000;stroke-width:4;stroke-linecap:butt;stroke-linejoin:miter;stroke-opacity:1"
         d="m -159,764 c 59.632326,9.66637 115.743764,12.46701 123,-80"
         id="path4484"
         inkscape:connector-curvature="0"
         transform="translate(0,452.36217)"
         sodipodi:nodetypes="cc" />
      <path
         sodipodi:nodetypes="cc"
         inkscape:connector-curvature="0"
         id="path4486"
         d="m -135,1220.3622 c 59.632326,9.6663 115.743764,12.467 123,-80"
         style="fill:none;stroke:#000000;stroke-width:4;stroke-linecap:butt;stroke-linejoin:miter;stroke-opacity:1" />
      <path
         style="fill:none;stroke:#000000;stroke-width:4;stroke-linecap:butt;stroke-linejoin:miter;stroke-opacity:1"
         d="m -99,1221.3622 c 59.632326,9.6663 115.743764,12.467 123,-80"
         id="path4488"
         inkscape:connector-curvature="0"
         sodipodi:nodetypes="cc" />
      <path
         sodipodi:nodetypes="cc"
         inkscape:connector-curvature="0"
         id="path4490"
         d="m -64,1224.3622 c 59.632326,9.6663 115.743764,12.467 123,-80"
         style="fill:none;stroke:#000000;stroke-width:4;stroke-linecap:butt;stroke-linejoin:miter;stroke-opacity:1" />
      <path
         style="fill:none;stroke:#000000;stroke-width:4;stroke-linecap:butt;stroke-linejoin:miter;stroke-opacity:1"
         d="m -26,1228.3622 c 59.632326,9.6663 115.743764,12.467 123,-80"
         id="path4492"
         inkscape:connector-curvature="0"
         sodipodi:nodetypes="cc" />
    </g>
    <path
       style="fill:#ff00ff;stroke:#000000;stroke-width:1.02896929px;stroke-linecap:butt;stroke-linejoin:miter;stroke-opacity:1"
       d="m 334,593.36217 -11,70.70301 -6,-24.35189 6,52.93889 4,40.23356 -10,-10.58778 c 0,0 5,66.70301 5,62.4679 0,-4.23512 -27.62506,-108.47163 -21,-128.11213 5,-14.82289 9,-57.174 9,-57.174"
       id="path3095"
       inkscape:connector-curvature="0"
       sodipodi:nodetypes="ccccccssc" />
    <g
       id="g4297"
       transform="translate(519,122)">
      <path
         style="fill:#e6e6e6;stroke:#000000;stroke-width:6;stroke-linecap:butt;stroke-linejoin:miter;stroke-opacity:1"
         d="M 210,32 C 120.39411,-23.688461 206.49089,-7.6328463 33,-50 -5.3988026,41.154757 22.293576,88.248727 37,144 l 26,11 177,-10 C 242.88408,94.686874 231.21035,74.870542 210,32 z"
         id="path4299"
         inkscape:connector-curvature="0"
         transform="translate(0,452.36217)"
         sodipodi:nodetypes="cccccc" />
      <path
         sodipodi:nodetypes="cccccc"
         inkscape:connector-curvature="0"
         id="path4301"
         d="m 197.29876,486.30302 c -44.13641,-30.17635 -2.95729,-39.00747 -149.166706,-80.7061 -32.360582,89.71641 -9.022836,136.06727 3.370999,190.93882 l 21.911493,10.82643 149.166704,-9.84221 c 2.43056,-49.51922 -7.40747,-69.02287 -25.28249,-111.21694 z"
         style="fill:#ffffff;stroke:none" />
      <path
         transform="translate(0,452.36217)"
         style="fill:url(#linearGradient4323);fill-opacity:1;stroke:#4d4d4d;stroke-width:6;stroke-miterlimit:4;stroke-opacity:1;stroke-dashoffset:0"
         d="M 202,69.5 C 213.88559,122.33906 185.36816,157.5645 129.5,151 93.572511,146.77852 85.998401,116.01912 71,69.5 48.258216,-1.0360418 67.463228,-50.297259 136.5,-19 169.44711,-4.0636953 191.27361,21.814308 202,69.5 z"
         id="path4303"
         inkscape:connector-curvature="0"
         sodipodi:nodetypes="sssss" />
      <path
         style="fill:#00ffff;fill-opacity:1;stroke:none"
         d="m 188.97329,569.59792 c -2.56785,16.67256 -21.38279,30.76425 -47.75981,30.76425 C 114.83646,600.36217 105,570.53763 105,553.547 c 0,-16.99063 6.58301,18.28036 32.01482,9.36304 29.90344,-10.48525 56.78607,-24.65684 51.95847,6.68788 z"
         id="path4305"
         inkscape:connector-curvature="0"
         sodipodi:nodetypes="sssss" />
      <path
         style="fill:#000000;fill-opacity:1;stroke:#000000"
         d="m 179,506.36217 c 0,29.27109 -18.80404,53 -42,53 -23.19596,0 -42,-23.72891 -42,-53 0,-29.27109 18.80404,47 42,47 23.19596,0 42,-76.27109 42,-47 z"
         id="path4307"
         inkscape:connector-curvature="0"
         sodipodi:nodetypes="cscsc" />
      <path
         style="fill:#ffffff;fill-opacity:1;stroke:none"
         d="m 197,559.96204 c 0,13.47582 -1.88726,16.40013 -9.14954,16.40013 -7.26229,0 -4.11667,-15.43022 -13.14953,-24.40013 -22.64116,-22.48336 -11.28796,-21.6328 9.14953,-16.40014 C 190.92801,537.37398 197,546.48621 197,559.96204 z"
         id="path4309"
         inkscape:connector-curvature="0"
         sodipodi:nodetypes="sssss" />
      <path
         style="fill:#ffffff;fill-opacity:1;stroke:none"
         d="m 167.26146,485.24542 c 1.79005,1.55416 7.05626,7.902 5.76609,9.38798 -1.29016,1.486 -8.64814,-2.45257 -10.43818,-4.00672 -1.79005,-1.55415 -2.19529,-4.01867 -0.90513,-5.50466 1.29017,-1.486 3.78717,-1.43074 5.57722,0.1234 z"
         id="path4311"
         inkscape:connector-curvature="0"
         sodipodi:nodetypes="sssss"
         inkscape:transform-center-x="-6.1494789"
         inkscape:transform-center-y="5.4599109" />
      <path
         style="fill:#000000;stroke:#000000;stroke-width:1px;stroke-linecap:butt;stroke-linejoin:miter;stroke-opacity:1"
         d="M 209,27 178,6 156,-18 31,-54 c 0,0 -11,-8 -24,-1 -13,7 -15,8 -15,8 l 22,-21 -9,-6 c 0,0 152,34 204,101 z"
         id="path4313"
         inkscape:connector-curvature="0"
         transform="translate(0,452.36217)" />
      <path
         style="fill:#000000;stroke:#000000;stroke-width:1px;stroke-linecap:butt;stroke-linejoin:miter;stroke-opacity:1"
         d="M 46,-44 10,35 35,145 -5,33 22,-58 z"
         id="path4315"
         inkscape:connector-curvature="0"
         transform="translate(0,452.36217)"
         sodipodi:nodetypes="cccccc" />
      <g
         id="g4317">
        <path
           transform="translate(0,452.36217)"
           inkscape:connector-curvature="0"
           id="path4319"
           d="M 231,-8 226,6 -58,-137"
           style="fill:none;stroke:#000000;stroke-width:4;stroke-linecap:butt;stroke-linejoin:miter;stroke-opacity:1" />
        <path
           sodipodi:nodetypes="cc"
           inkscape:connector-curvature="0"
           id="path4321"
           d="m 25,357.36217 c -45.764127,-5.4519 -65.54671,-0.20551 -66,13"
           style="fill:none;stroke:#000000;stroke-width:3;stroke-linecap:butt;stroke-linejoin:miter;stroke-opacity:1" />
      </g>
    </g>
    <path
       style="fill:#ffa86b;fill-opacity:1;stroke:none"
       d="m 391,762.4132 c 0,0 -28.7314,15.40831 -12.13949,28.7515 16.59189,13.34321 -8.13951,4.40434 -10.90482,2.78699 -2.76532,-1.61736 5.53063,-40.43395 23.04431,-31.53849 z"
       id="path4329"
       inkscape:connector-curvature="0"
       sodipodi:nodetypes="cssc" />
    <path
       sodipodi:nodetypes="cssc"
       inkscape:connector-curvature="0"
       id="path4333"
       d="m 353.43353,762.4132 c 0,0 16.7314,7.40831 14.13949,28.7515 -2.56679,21.13631 8.13951,8.40434 10.90482,6.78699 2.76532,-1.61736 -7.53063,-44.43395 -25.04431,-35.53849 z"
       style="fill:#ffa86b;fill-opacity:1;stroke:none" />
    <g
       inkscape:transform-center-y="-21.018349"
       inkscape:transform-center-x="-15.110504"
       id="g4416"
       transform="matrix(-0.33846217,0.34337311,-0.34337311,-0.33846217,817.34727,732.38786)">
      <path
         sodipodi:nodetypes="ccccccccccc"
         transform="translate(0,452.36217)"
         inkscape:connector-curvature="0"
         id="path4418"
         d="m 652,478 c -22.51224,1.39274 -22.71127,1.77541 -40,3 -11.89554,1.51129 -21.17612,3.62602 1,13 l -28,3 c -19.38248,17.48633 -1.95024,20.24676 3,28 l 48,3 51,-11 18,-13 17,-2 1,-29 z"
         style="fill:#ffb380;fill-opacity:1;stroke:#000000;stroke-width:1px;stroke-linecap:butt;stroke-linejoin:miter;stroke-opacity:1" />
      <path
         sodipodi:nodetypes="cc"
         transform="translate(0,452.36217)"
         inkscape:connector-curvature="0"
         id="path4420"
         d="m 581,505 c 14.66667,1.33333 30.66667,1.33333 48,0"
         style="fill:none;stroke:#000000;stroke-width:2;stroke-linecap:butt;stroke-linejoin:miter;stroke-opacity:1" />
      <path
         style="fill:none;stroke:#000000;stroke-width:2;stroke-linecap:butt;stroke-linejoin:miter;stroke-opacity:1"
         d="m 581,965.36217 c 14.66667,1.33333 30.66667,1.33333 48,0"
         id="path4422"
         inkscape:connector-curvature="0"
         sodipodi:nodetypes="cc" />
      <path
         sodipodi:nodetypes="cc"
         inkscape:connector-curvature="0"
         id="path4424"
         d="m 585,973.36217 c 14.66667,1.33333 30.66667,1.33333 48,0"
         style="fill:none;stroke:#000000;stroke-width:2;stroke-linecap:butt;stroke-linejoin:miter;stroke-opacity:1" />
      <path
         sodipodi:nodetypes="cc"
         inkscape:connector-curvature="0"
         id="path4426"
         d="m 609.55203,945.81014 c 7.19374,-3.86125 15.04145,-3.86125 23.54314,0"
         style="fill:none;stroke:#000000;stroke-width:2.38361788;stroke-linecap:butt;stroke-linejoin:miter;stroke-opacity:1" />
    </g>
    <path
       style="fill:#000000;stroke:#000000;stroke-width:1px;stroke-linecap:butt;stroke-linejoin:miter;stroke-opacity:1"
       d="m 310.40993,738.19059 c 9.87879,15.6569 10.67673,31.00744 -14.90256,34.39352 l -75.48586,-47.15809 27.75195,-74.85205 16.30259,11.62865 -14.50531,56.02318 z"
       id="path4383"
       inkscape:connector-curvature="0"
       sodipodi:nodetypes="ccccccc"
       inkscape:transform-center-x="35.154686"
       inkscape:transform-center-y="-46.954941" />
    <path
       style="fill:#0000ff;stroke:#000000;stroke-width:1px;stroke-linecap:butt;stroke-linejoin:miter;stroke-opacity:1"
       d="m 324,873.36217 86,-1 12,77 18.625,202.75003 -63.375,0.75 -10.75,-202.50003 -4.75,203.50003 -70.375,-1.25 L 311,951.36217 z"
       id="path4428"
       inkscape:connector-curvature="0"
       sodipodi:nodetypes="cccccccccc" />
    <g
       id="g4456"
       inkscape:transform-center-x="-36.577873"
       inkscape:transform-center-y="69.101527"
       transform="matrix(0.96407016,-0.26564777,0.26564777,0.96407016,-193.40562,143.77153)">
      <g
         inkscape:transform-center-y="15.324565"
         inkscape:transform-center-x="21.753852"
         id="g4404"
         transform="matrix(0.42841681,-0.22118041,0.22118041,0.42841681,-82.38632,617.09095)">
        <path
           sodipodi:nodetypes="ccccccccccc"
           transform="translate(0,452.36217)"
           inkscape:connector-curvature="0"
           id="path4406"
           d="m 652,478 c -22.51224,1.39274 -22.71127,1.77541 -40,3 -11.89554,1.51129 -21.17612,3.62602 1,13 l -28,3 c -19.38248,17.48633 -1.95024,20.24676 3,28 l 48,3 51,-11 18,-13 17,-2 1,-29 z"
           style="fill:#ffb380;fill-opacity:1;stroke:#000000;stroke-width:1px;stroke-linecap:butt;stroke-linejoin:miter;stroke-opacity:1" />
        <path
           sodipodi:nodetypes="cc"
           transform="translate(0,452.36217)"
           inkscape:connector-curvature="0"
           id="path4408"
           d="m 581,505 c 14.66667,1.33333 30.66667,1.33333 48,0"
           style="fill:none;stroke:#000000;stroke-width:2;stroke-linecap:butt;stroke-linejoin:miter;stroke-opacity:1" />
        <path
           style="fill:none;stroke:#000000;stroke-width:2;stroke-linecap:butt;stroke-linejoin:miter;stroke-opacity:1"
           d="m 581,965.36217 c 14.66667,1.33333 30.66667,1.33333 48,0"
           id="path4410"
           inkscape:connector-curvature="0"
           sodipodi:nodetypes="cc" />
        <path
           sodipodi:nodetypes="cc"
           inkscape:connector-curvature="0"
           id="path4412"
           d="m 585,973.36217 c 14.66667,1.33333 30.66667,1.33333 48,0"
           style="fill:none;stroke:#000000;stroke-width:2;stroke-linecap:butt;stroke-linejoin:miter;stroke-opacity:1" />
        <path
           sodipodi:nodetypes="cc"
           inkscape:connector-curvature="0"
           id="path4414"
           d="m 609.55203,945.81014 c 7.19374,-3.86125 15.04145,-3.86125 23.54314,0"
           style="fill:none;stroke:#000000;stroke-width:2.38361788;stroke-linecap:butt;stroke-linejoin:miter;stroke-opacity:1" />
      </g>
      <path
         style="fill:#000000;stroke:#000000;stroke-width:1px;stroke-linecap:butt;stroke-linejoin:miter;stroke-opacity:1"
         d="m 415.42091,767.74412 c -1.9254,-18.41255 4.1558,-32.52973 28.5904,-24.24024 l 46.80365,75.70614 -58.02522,54.82767 -9.4688,-17.64489 37.81104,-43.81012 z"
         id="path4385"
         inkscape:connector-curvature="0"
         sodipodi:nodetypes="ccccccc"
         inkscape:transform-center-x="-22.387044"
         inkscape:transform-center-y="55.02186" />
    </g>
    <g
       id="g4444"
       transform="matrix(0.50630098,0,0,0.50630098,451.65086,356.35892)">
      <rect
         y="1011.3622"
         x="-259"
         height="18"
         width="180"
         id="rect4442"
         style="fill:#4d4d4d;fill-opacity:1;stroke:#784421;stroke-width:6;stroke-miterlimit:4;stroke-opacity:1;stroke-dasharray:none;stroke-dashoffset:0" />
      <g
         id="g4438">
        <rect
           style="fill:#808080;fill-opacity:1;stroke:#784421;stroke-width:3.08108115"
           id="rect4430"
           width="53.918919"
           height="33.37838"
           x="-201.45946"
           y="1004.9027" />
        <rect
           y="1004.9027"
           x="-186.4261"
           height="33.37838"
           width="11.426103"
           id="rect4432"
           style="fill:#4d4d4d;fill-opacity:1;stroke:#784421;stroke-width:1.41834414" />
      </g>
    </g>
    <path
       style="fill:none;stroke:#000000;stroke-width:1px;stroke-linecap:butt;stroke-linejoin:miter;stroke-opacity:1"
       d="m 318,902.36217 c 15.31654,0.98321 20.66053,-8.00614 20,-23"
       id="path4450"
       inkscape:connector-curvature="0"
       sodipodi:nodetypes="cc" />
    <path
       sodipodi:nodetypes="cc"
       inkscape:connector-curvature="0"
       id="path4452"
       d="m 413.05385,901.36217 c -15.31654,0.98321 -20.66053,-8.00614 -20,-23"
       style="fill:none;stroke:#000000;stroke-width:1px;stroke-linecap:butt;stroke-linejoin:miter;stroke-opacity:1" />
    <path
       style="fill:none;stroke:#000000;stroke-width:1.05121624px;stroke-linecap:butt;stroke-linejoin:miter;stroke-opacity:1"
       d="m 372,883.26895 2,37.57189 c 3.87919,11.14449 5.32735,21.21442 -4,26.52133"
       id="path4454"
       inkscape:connector-curvature="0"
       sodipodi:nodetypes="ccc" />
    <g
       id="g4475"
       transform="matrix(0.12867398,-0.05074913,0.05074913,0.12867398,336.14056,462.34619)">
      <path
         sodipodi:nodetypes="cc"
         transform="translate(0,452.36217)"
         inkscape:connector-curvature="0"
         id="path4465"
         d="m -159,764 c 59.632326,9.66637 115.743764,12.46701 123,-80"
         style="fill:none;stroke:#000000;stroke-width:4;stroke-linecap:butt;stroke-linejoin:miter;stroke-opacity:1" />
      <path
         style="fill:none;stroke:#000000;stroke-width:4;stroke-linecap:butt;stroke-linejoin:miter;stroke-opacity:1"
         d="m -135,1220.3622 c 59.632326,9.6663 115.743764,12.467 123,-80"
         id="path4467"
         inkscape:connector-curvature="0"
         sodipodi:nodetypes="cc" />
      <path
         sodipodi:nodetypes="cc"
         inkscape:connector-curvature="0"
         id="path4469"
         d="m -99,1221.3622 c 59.632326,9.6663 115.743764,12.467 123,-80"
         style="fill:none;stroke:#000000;stroke-width:4;stroke-linecap:butt;stroke-linejoin:miter;stroke-opacity:1" />
      <path
         style="fill:none;stroke:#000000;stroke-width:4;stroke-linecap:butt;stroke-linejoin:miter;stroke-opacity:1"
         d="m -64,1224.3622 c 59.632326,9.6663 115.743764,12.467 123,-80"
         id="path4471"
         inkscape:connector-curvature="0"
         sodipodi:nodetypes="cc" />
      <path
         sodipodi:nodetypes="cc"
         inkscape:connector-curvature="0"
         id="path4473"
         d="m -26,1228.3622 c 59.632326,9.6663 115.743764,12.467 123,-80"
         style="fill:none;stroke:#000000;stroke-width:4;stroke-linecap:butt;stroke-linejoin:miter;stroke-opacity:1" />
    </g>
    <g
       transform="matrix(0.07654809,0.00652681,0.00652681,-0.07654809,383.04445,747.83569)"
       id="g4494">
      <path
         style="fill:none;stroke:#000000;stroke-width:4;stroke-linecap:butt;stroke-linejoin:miter;stroke-opacity:1"
         d="m -159,764 c 59.632326,9.66637 115.743764,12.46701 123,-80"
         id="path4496"
         inkscape:connector-curvature="0"
         transform="translate(0,452.36217)"
         sodipodi:nodetypes="cc" />
      <path
         sodipodi:nodetypes="cc"
         inkscape:connector-curvature="0"
         id="path4498"
         d="m -135,1220.3622 c 59.632326,9.6663 115.743764,12.467 123,-80"
         style="fill:none;stroke:#000000;stroke-width:4;stroke-linecap:butt;stroke-linejoin:miter;stroke-opacity:1" />
      <path
         style="fill:none;stroke:#000000;stroke-width:4;stroke-linecap:butt;stroke-linejoin:miter;stroke-opacity:1"
         d="m -99,1221.3622 c 59.632326,9.6663 115.743764,12.467 123,-80"
         id="path4500"
         inkscape:connector-curvature="0"
         sodipodi:nodetypes="cc" />
      <path
         sodipodi:nodetypes="cc"
         inkscape:connector-curvature="0"
         id="path4502"
         d="m -64,1224.3622 c 59.632326,9.6663 115.743764,12.467 123,-80"
         style="fill:none;stroke:#000000;stroke-width:4;stroke-linecap:butt;stroke-linejoin:miter;stroke-opacity:1" />
      <path
         style="fill:none;stroke:#000000;stroke-width:4;stroke-linecap:butt;stroke-linejoin:miter;stroke-opacity:1"
         d="m -26,1228.3622 c 59.632326,9.6663 115.743764,12.467 123,-80"
         id="path4504"
         inkscape:connector-curvature="0"
         sodipodi:nodetypes="cc" />
    </g>
    <g
       id="g4506"
       transform="matrix(-0.07654809,0.00652681,-0.00652681,-0.07654809,353.73297,747.83569)">
      <path
         sodipodi:nodetypes="cc"
         transform="translate(0,452.36217)"
         inkscape:connector-curvature="0"
         id="path4508"
         d="m -159,764 c 59.632326,9.66637 115.743764,12.46701 123,-80"
         style="fill:none;stroke:#000000;stroke-width:4;stroke-linecap:butt;stroke-linejoin:miter;stroke-opacity:1" />
      <path
         style="fill:none;stroke:#000000;stroke-width:4;stroke-linecap:butt;stroke-linejoin:miter;stroke-opacity:1"
         d="m -135,1220.3622 c 59.632326,9.6663 115.743764,12.467 123,-80"
         id="path4510"
         inkscape:connector-curvature="0"
         sodipodi:nodetypes="cc" />
      <path
         sodipodi:nodetypes="cc"
         inkscape:connector-curvature="0"
         id="path4512"
         d="m -99,1221.3622 c 59.632326,9.6663 115.743764,12.467 123,-80"
         style="fill:none;stroke:#000000;stroke-width:4;stroke-linecap:butt;stroke-linejoin:miter;stroke-opacity:1" />
      <path
         style="fill:none;stroke:#000000;stroke-width:4;stroke-linecap:butt;stroke-linejoin:miter;stroke-opacity:1"
         d="m -64,1224.3622 c 59.632326,9.6663 115.743764,12.467 123,-80"
         id="path4514"
         inkscape:connector-curvature="0"
         sodipodi:nodetypes="cc" />
      <path
         sodipodi:nodetypes="cc"
         inkscape:connector-curvature="0"
         id="path4516"
         d="m -26,1228.3622 c 59.632326,9.6663 115.743764,12.467 123,-80"
         style="fill:none;stroke:#000000;stroke-width:4;stroke-linecap:butt;stroke-linejoin:miter;stroke-opacity:1" />
    </g>
    <path
       style="fill:#000000;stroke:#000000;stroke-width:1px;stroke-linecap:butt;stroke-linejoin:miter;stroke-opacity:1"
       d="m 382.20797,1157.9037 c -3.946,8.3325 -4.29614,15.6839 4.56275,20.5227 87.04093,25.9792 88.4474,15.9893 53.32378,-13.512 6.12989,-9.2739 0.73476,-15.4032 -5.7907,-21.2242 -14.41397,4.7105 -30.70876,5.1059 -52.09583,14.2135 z"
       id="path4522"
       inkscape:connector-curvature="0"
       sodipodi:nodetypes="ccccc"
       inkscape:transform-center-y="11.951241"
       inkscape:transform-center-x="-6.1028746" />
    <path
       style="fill:#0000d9;stroke:#000000;stroke-width:1px;stroke-linecap:butt;stroke-linejoin:miter;stroke-opacity:1;fill-opacity:1"
       d="m 376,674 c 0,0 -8,21 -1,25 7,4 28,5 35,2 7,-3 30,5 32,0 2,-5 9,-30 -2,-27 -11,3 -64,0 -64,0 z"
       id="path4518"
       inkscape:connector-curvature="0"
       transform="translate(0,452.36217)" />
    <path
       sodipodi:nodetypes="ccccc"
       inkscape:connector-curvature="0"
       id="path4538"
       d="m 354.33312,1156.1143 c 4.63173,7.9717 5.5979,15.2678 -2.82338,20.8333 -20.28746,13.0072 -146.79567,28.373 -54.27005,-8.9867 -6.88694,-8.7265 -2.02554,-15.2872 3.9881,-21.6355 14.7586,3.4834 31.02904,2.5093 53.10533,9.7889 z"
       style="fill:#000000;stroke:#000000;stroke-width:1px;stroke-linecap:butt;stroke-linejoin:miter;stroke-opacity:1"
       inkscape:transform-center-x="7.7270548"
       inkscape:transform-center-y="10.267745" />
    <path
       inkscape:connector-curvature="0"
       id="path4520"
       d="m 360.16732,1123.3622 c 0,0 8,21 1,25 -7,4 -28,5 -35,2 -7,-3 -30,5 -32,0 -2,-5 -9,-30 2,-27 11,3 64,0 64,0 z"
       style="fill:#0000d9;fill-opacity:1;stroke:#000000;stroke-width:1px;stroke-linecap:butt;stroke-linejoin:miter;stroke-opacity:1" />
    <flowRoot
       xml:space="preserve"
       id="flowRoot4584"
       style="font-size:40px;font-style:normal;font-weight:normal;line-height:125%;letter-spacing:0px;word-spacing:0px;fill:#000000;fill-opacity:1;stroke:none;font-family:Sans"
       transform="translate(503,660.36217)"><flowRegion
         id="flowRegion4586"><rect
           id="rect4588"
           width="622"
           height="104"
           x="35"
           y="452" /></flowRegion><flowPara
         id="flowPara4590"
         style="font-weight:bold;text-align:center;text-anchor:middle;-inkscape-font-specification:Sans Bold">www.shialeweb.com</flowPara></flowRoot>    <g
       id="g3775">
      <path
         sodipodi:nodetypes="cccccc"
         inkscape:connector-curvature="0"
         id="path3729"
         d="m 860.4335,608.36217 c 89.60589,-55.68846 3.50911,-39.63285 177,-82 38.3988,91.15476 10.7064,138.24873 -4,194 l -26,11 -177,-10 c -2.88408,-50.31313 8.78965,-70.12946 30,-113 z"
         style="fill:#e6e6e6;stroke:#000000;stroke-width:6;stroke-linecap:butt;stroke-linejoin:miter;stroke-opacity:1" />
      <path
         style="fill:#ffffff;stroke:none"
         d="m 873.13474,610.30302 c 44.13641,-30.17635 2.95729,-39.00747 149.16666,-80.7061 32.3606,89.71641 9.0229,136.06727 -3.371,190.93882 l -21.91145,10.82643 -149.1667,-9.84221 c -2.43056,-49.51922 7.40747,-69.02287 25.28249,-111.21694 z"
         id="path3731"
         inkscape:connector-curvature="0"
         sodipodi:nodetypes="cccccc" />
      <path
         sodipodi:nodetypes="sssss"
         inkscape:connector-curvature="0"
         id="path3733"
         d="m 868.4335,645.86217 c -11.88559,52.83906 16.63184,88.0645 72.5,81.5 35.92749,-4.22148 43.5016,-34.98088 58.5,-81.5 22.7418,-70.53604 3.5368,-119.79726 -65.5,-88.5 -32.94711,14.9363 -54.77361,40.81431 -65.5,88.5 z"
         style="fill:url(#linearGradient3765);fill-opacity:1;stroke:#4d4d4d;stroke-width:6;stroke-miterlimit:4;stroke-opacity:1;stroke-dashoffset:0" />
      <g
         transform="matrix(-1,0,0,1,1859.367,0)"
         id="g3769">
        <path
           style="fill:#00ffff;fill-opacity:1;stroke:none"
           d="m 881.46021,693.59792 c 2.56785,16.67256 21.38279,30.76425 47.75981,30.76425 26.37702,0 36.21348,-29.82454 36.21348,-46.81517 0,-16.99063 -6.58301,18.28036 -32.01482,9.36304 -29.90344,-10.48525 -56.78607,-24.65684 -51.95847,6.68788 z"
           id="path3735"
           inkscape:connector-curvature="0"
           sodipodi:nodetypes="sssss" />
        <path
           style="fill:#000000;fill-opacity:1;stroke:#000000"
           d="m 891.4335,630.36217 c 0,29.27109 18.80404,53 42,53 23.19596,0 42,-23.72891 42,-53 0,-29.27109 -18.80404,47 -42,47 -23.19596,0 -42,-76.27109 -42,-47 z"
           id="path3737"
           inkscape:connector-curvature="0"
           sodipodi:nodetypes="cscsc" />
        <path
           style="fill:#ffffff;fill-opacity:1;stroke:none"
           d="m 873.4335,683.96204 c 0,13.47582 1.88726,16.40013 9.14954,16.40013 7.26229,0 4.11667,-15.43022 13.14953,-24.40013 22.64116,-22.48336 11.28796,-21.6328 -9.14953,-16.40014 -7.07755,1.81208 -13.14954,10.92431 -13.14954,24.40014 z"
           id="path3739"
           inkscape:connector-curvature="0"
           sodipodi:nodetypes="sssss" />
        <path
           style="fill:#ffffff;fill-opacity:1;stroke:none"
           d="m 903.17204,609.24542 c -1.79005,1.55416 -7.05626,7.902 -5.76609,9.38798 1.29016,1.486 8.64814,-2.45257 10.43818,-4.00672 1.79005,-1.55415 2.19529,-4.01867 0.90513,-5.50466 -1.29017,-1.486 -3.78717,-1.43074 -5.57722,0.1234 z"
           id="path3741"
           inkscape:connector-curvature="0"
           sodipodi:nodetypes="sssss"
           inkscape:transform-center-x="-6.1494789"
           inkscape:transform-center-y="5.4599109" />
      </g>
      <path
         inkscape:connector-curvature="0"
         id="path3743"
         d="m 861.4335,603.36217 31,-21 22,-24 125,-36 c 0,0 11,-8 24,-1 13,7 15,8 15,8 l -22,-21 9,-6 c 0,0 -152,34 -204,101 z"
         style="fill:#000000;stroke:#000000;stroke-width:1px;stroke-linecap:butt;stroke-linejoin:miter;stroke-opacity:1" />
      <path
         sodipodi:nodetypes="cccccc"
         inkscape:connector-curvature="0"
         id="path3745"
         d="m 1024.4335,532.36217 36,79 -25,110 40,-112 -27,-91 z"
         style="fill:#000000;stroke:#000000;stroke-width:1px;stroke-linecap:butt;stroke-linejoin:miter;stroke-opacity:1" />
      <g
         transform="matrix(-1,0,0,1,1070.4335,124)"
         id="g3747">
        <path
           style="fill:none;stroke:#000000;stroke-width:4;stroke-linecap:butt;stroke-linejoin:miter;stroke-opacity:1"
           d="M 231,-8 226,6 -58,-137"
           id="path3749"
           inkscape:connector-curvature="0"
           transform="translate(0,452.36217)" />
        <path
           style="fill:none;stroke:#000000;stroke-width:3;stroke-linecap:butt;stroke-linejoin:miter;stroke-opacity:1"
           d="m 25,357.36217 c -45.764127,-5.4519 -65.54671,-0.20551 -66,13"
           id="path3751"
           inkscape:connector-curvature="0"
           sodipodi:nodetypes="cc" />
      </g>
    </g>
  </g>
</svg>
