<?xml version="1.0" encoding="UTF-8" standalone="no"?>
<!-- Created with Inkscape (http://www.inkscape.org/) -->

<svg
   xmlns:dc="http://purl.org/dc/elements/1.1/"
   xmlns:cc="http://creativecommons.org/ns#"
   xmlns:rdf="http://www.w3.org/1999/02/22-rdf-syntax-ns#"
   xmlns:svg="http://www.w3.org/2000/svg"
   xmlns="http://www.w3.org/2000/svg"
   xmlns:xlink="http://www.w3.org/1999/xlink"
   xmlns:sodipodi="http://sodipodi.sourceforge.net/DTD/sodipodi-0.dtd"
   xmlns:inkscape="http://www.inkscape.org/namespaces/inkscape"
   width="1024px"
   height="768px"
   id="svg2985"
   version="1.1"
   inkscape:version="0.48.2 r9819"
   sodipodi:docname="avatar.svg">
  <defs
     id="defs2987">
    <linearGradient
       inkscape:collect="always"
       id="linearGradient3806">
      <stop
         style="stop-color:#ffffff;stop-opacity:1;"
         offset="0"
         id="stop3808" />
      <stop
         style="stop-color:#ffffff;stop-opacity:0;"
         offset="1"
         id="stop3810" />
    </linearGradient>
    <linearGradient
       inkscape:collect="always"
       xlink:href="#linearGradient3806"
       id="linearGradient3812"
       x1="656.76056"
       y1="354.54929"
       x2="642"
       y2="475"
       gradientUnits="userSpaceOnUse"
       gradientTransform="matrix(0.8875,0,0,0.8875,73.481449,48.7625)" />
    <linearGradient
       inkscape:collect="always"
       xlink:href="#linearGradient3806"
       id="linearGradient3973"
       gradientUnits="userSpaceOnUse"
       gradientTransform="matrix(0.8875,0,0,0.8875,73.481449,48.7625)"
       x1="656.76056"
       y1="354.54929"
       x2="642"
       y2="475" />
    <linearGradient
       inkscape:collect="always"
       xlink:href="#linearGradient3806"
       id="linearGradient3975"
       gradientUnits="userSpaceOnUse"
       gradientTransform="matrix(0.8875,0,0,0.8875,73.481449,48.7625)"
       x1="656.76056"
       y1="354.54929"
       x2="642"
       y2="475" />
    <linearGradient
       inkscape:collect="always"
       xlink:href="#linearGradient3806"
       id="linearGradient4047"
       gradientUnits="userSpaceOnUse"
       gradientTransform="matrix(0.8875,0,0,0.8875,73.481449,48.7625)"
       x1="656.76056"
       y1="354.54929"
       x2="642"
       y2="475" />
    <linearGradient
       inkscape:collect="always"
       xlink:href="#linearGradient3806"
       id="linearGradient4049"
       gradientUnits="userSpaceOnUse"
       gradientTransform="matrix(0.8875,0,0,0.8875,73.481449,48.7625)"
       x1="656.76056"
       y1="354.54929"
       x2="642"
       y2="475" />
  </defs>
  <sodipodi:namedview
     id="base"
     pagecolor="#ffffff"
     bordercolor="#666666"
     borderopacity="1.0"
     inkscape:pageopacity="0.0"
     inkscape:pageshadow="2"
     inkscape:zoom="1"
     inkscape:cx="317.90676"
     inkscape:cy="280.41442"
     inkscape:current-layer="layer1"
     inkscape:document-units="px"
     showgrid="false"
     inkscape:window-width="1920"
     inkscape:window-height="990"
     inkscape:window-x="-3"
     inkscape:window-y="32"
     inkscape:window-maximized="1" />
  <metadata
     id="metadata2990">
    <rdf:RDF>
      <cc:Work
         rdf:about="">
        <dc:format>image/svg+xml</dc:format>
        <dc:type
           rdf:resource="http://purl.org/dc/dcmitype/StillImage" />
        <dc:title></dc:title>
      </cc:Work>
    </rdf:RDF>
  </metadata>
  <g
     id="layer1"
     inkscape:label="Layer 1"
     inkscape:groupmode="layer">
    <g
       inkscape:transform-center-y="-31.720535"
       inkscape:transform-center-x="-25.442325"
       transform="matrix(-0.04090226,-0.30552358,0.30552358,-0.04090226,224.93756,574.26006)"
       id="g4128">
      <path
         style="fill:#7c7c7c;fill-opacity:0.99509493;stroke:#000000;stroke-width:1px;stroke-linecap:butt;stroke-linejoin:miter;stroke-opacity:1"
         d="m 573,408 -64.63842,-5.38172 C 484.08568,460.34587 433.94625,518.70538 434,574 c -0.27476,17.98068 16.98447,15.92252 35,13 l 259,-25 54,-41 29,-13 c 1.87668,-13.8025 37.61503,-36.07042 -8,-38 l -52,15 -37,32 c -77,9 -111.39519,-37.73393 -167,11 38.15663,-39.19154 56.5337,-86.09234 26,-120 z"
         id="path4130"
         inkscape:connector-curvature="0"
         sodipodi:nodetypes="cccccccccccc" />
      <path
         sodipodi:nodetypes="cccccccccccc"
         inkscape:connector-curvature="0"
         id="path4132"
         d="M 568.53907,407.67902 512.71178,402 c -22.97723,54.63938 -57.7876,110.46208 -57.73673,162.79864 -0.26006,17.01879 16.07587,15.07073 33.12763,12.30455 l 245.14447,-23.66259 51.11121,-38.80665 27.44861,-12.30455 c 1.77628,-13.06412 31.60276,-26.14079 -11.57203,-27.96715 l -47.2182,18.19756 -35.02064,30.28812 c -71.76982,8.76541 -79.34997,-30.36287 -174.06612,6.41154 36.11539,-37.09494 53.50936,-89.48672 24.60909,-121.58045 z"
         style="fill:#999999;fill-opacity:0.99509493;stroke:none" />
      <path
         style="fill:#7c7c7c;fill-opacity:0.99607915;stroke:none"
         d="m 530.95327,435.16376 c 0,0 -26.88146,30.08956 -27.25735,65.4443 -0.37589,35.35473 1.25781,41.32065 1.25781,41.32065 l -25.11283,13.22925 c 0,0 -12.86244,-54.5493 10.02392,-86.40265 22.88635,-31.85335 23.71526,-59.14109 23.71526,-59.14109 l 37.51744,5.83564 z"
         id="path4134"
         inkscape:connector-curvature="0" />
      <path
         inkscape:connector-curvature="0"
         id="path4136"
         d="m 566.97756,541.03305 c 0,0 38.29801,9.18322 70.18521,3.16739 31.88721,-6.01583 36.55496,-7.94486 36.55496,-7.94486 l 22.42356,11.19624 c 0,0 -43.5515,16.52052 -81.75392,9.79885 -38.20241,-6.72168 -63.04018,-2.36862 -63.04018,-2.36862 l -10.52535,-21.22917 z"
         style="opacity:0.55823292;fill:#7c7c7c;fill-opacity:0.99607915;stroke:none" />
    </g>
    <g
       id="g3786"
       transform="matrix(0.6055371,0,0,0.6055371,110.3144,176.52384)">
      <path
         sodipodi:nodetypes="ccccccccc"
         inkscape:connector-curvature="0"
         id="path3782"
         d="m 273.23558,288.4968 c 31.39699,-68.93402 160.23657,-71.46435 117.70298,35.26121 -18.87562,28.37078 -23.33105,60.67435 -57.67734,84.82586 C 324.28172,428.56337 308.39197,442.60803 318,444 l 50,48 c 54.25535,27.76209 72.66707,78.55461 -74,51 l -51,-67 c -12.67348,-11.95407 -9.53844,-33.78847 -1,-59 z"
         style="fill:#808080;stroke:#000000;stroke-width:1px;stroke-linecap:butt;stroke-linejoin:miter;stroke-opacity:1" />
      <path
         style="fill:#b3b3b3;stroke:none"
         d="M 292.67543,296.95428 C 321.95537,228.02026 402.73304,208.27444 363.06743,315 l -48.89828,93 c -8.37403,19.9795 -11.75789,34.60803 -2.79772,36 L 366,490 c 50.59699,27.76209 67.76723,76.55461 -69.01028,49 l -47.56114,-65 c -11.81893,-11.95407 -6.89528,-31.78847 1.06743,-57 z"
         id="path3784"
         inkscape:connector-curvature="0"
         sodipodi:nodetypes="ccccccccc" />
    </g>
    <path
       style="fill:none;stroke:#ff0000;stroke-width:3;stroke-linecap:butt;stroke-linejoin:miter;stroke-opacity:1"
       d="m 322,304 c -5.32762,32.06735 -8.1504,59.27235 31,5 l 16,-25"
       id="path3790"
       inkscape:connector-curvature="0"
       sodipodi:nodetypes="ccc" />
    <g
       id="g3847"
       transform="translate(-643,-271)">
      <g
         id="g3824">
        <g
           id="g3798">
          <path
             sodipodi:nodetypes="cccccc"
             inkscape:connector-curvature="0"
             id="path3794"
             d="m 720,460 c -1,-4 -8,-30 -8,-30 l -166,-64 32,26 6,55 c -7.14692,42.68429 79.53492,16.80141 136,13 z"
             style="fill:#e6e6e6;stroke:#000000;stroke-width:1px;stroke-linecap:butt;stroke-linejoin:miter;stroke-opacity:1" />
          <path
             style="fill:#ffffff;stroke:none"
             d="m 706,456.42727 c -0.83333,-3.5501 -6.66666,-26.62573 -6.66666,-26.62573 L 561,373 l 26.66667,23.07563 13,48.81383 C 594.7109,482.77279 658.94577,459.80111 706,456.42727 z"
             id="path3796"
             inkscape:connector-curvature="0"
             sodipodi:nodetypes="cccccc" />
        </g>
        <path
           style="fill:#000000;stroke:#000000;stroke-width:1px;stroke-linecap:butt;stroke-linejoin:miter;stroke-opacity:1"
           d="m 604,389 66,25 c 19.7044,8.81447 36.22693,19.21987 14,49 l -54,6 c -48.13239,-37.05238 -23.62829,-54.9899 -26,-80 z"
           id="path3802"
           inkscape:connector-curvature="0"
           sodipodi:nodetypes="ccccc" />
        <path
           sodipodi:nodetypes="ccccc"
           inkscape:connector-curvature="0"
           id="path3804"
           d="m 609.53145,394 58.575,22.1875 c 17.48765,7.82284 32.1514,17.05763 12.425,43.4875 l -47.925,5.325 c -42.7175,-32.88399 -20.97011,-48.80354 -23.075,-71 z"
           style="fill:url(#linearGradient3812);fill-opacity:1;stroke:none" />
        <g
           id="g3818"
           transform="matrix(0.24156441,-0.10736091,0.10736091,0.24156441,437.12109,435.3529)">
          <path
             inkscape:connector-curvature="0"
             id="path3814"
             d="m 616,231 54,-38 54,7 -44,38 z"
             style="fill:#ffffff;stroke:#000000;stroke-width:1px;stroke-linecap:butt;stroke-linejoin:miter;stroke-opacity:1" />
          <path
             sodipodi:nodetypes="ccccc"
             inkscape:connector-curvature="0"
             id="path3816"
             d="m 612,258 c 5,0 61,2 61,2 -3.46967,31.37204 -13.19203,66.21779 6,85 -17.28947,21.05256 -35.23416,51.27818 -50,37 -18.13689,-33.53944 -20.05394,-77.21628 -17,-124 z"
             style="fill:#ffffff;stroke:#000000;stroke-width:1px;stroke-linecap:butt;stroke-linejoin:miter;stroke-opacity:1" />
        </g>
        <path
           style="fill:#ffffff;stroke:#000000;stroke-width:0.12384575px;stroke-linecap:butt;stroke-linejoin:miter;stroke-opacity:1"
           d="m 652.56192,418.56735 c 0,0 1.73384,-5.94459 3.83922,-5.32536 2.10538,0.61922 21.17762,9.90766 21.17762,9.90766 l 1.23846,9.28843 c -15.00023,-19.56555 -17.9901,-10.4107 -26.2553,-13.87073 z"
           id="path3822"
           inkscape:connector-curvature="0"
           sodipodi:nodetypes="csccc" />
      </g>
      <path
         sodipodi:nodetypes="ccccccc"
         inkscape:connector-curvature="0"
         id="path3835"
         d="m 717.03873,414.18765 c -4.59271,-1.01965 -156.003,-85.96271 -156.003,-85.96271 l -27.55622,14.78488 -20.66716,7.64736 51.28519,-43.84483 151.09011,64.15918 z"
         style="fill:#000000;stroke:#000000;stroke-width:0.62469572px;stroke-linecap:butt;stroke-linejoin:miter;stroke-opacity:1" />
      <path
         inkscape:connector-curvature="0"
         id="path3837"
         d="m 714,424 -144,-79 -26,2"
         style="fill:none;stroke:#000000;stroke-width:1px;stroke-linecap:butt;stroke-linejoin:miter;stroke-opacity:1" />
      <path
         inkscape:connector-curvature="0"
         id="path3839"
         d="m 731,402 1,39 -12,-18"
         style="fill:none;stroke:#000000;stroke-width:1px;stroke-linecap:butt;stroke-linejoin:miter;stroke-opacity:1" />
      <path
         inkscape:connector-curvature="0"
         id="path3841"
         d="m 727,452 7,4 5,-29"
         style="fill:none;stroke:#000000;stroke-width:1px;stroke-linecap:butt;stroke-linejoin:miter;stroke-opacity:1" />
      <path
         inkscape:connector-curvature="0"
         id="path3843"
         d="m 739,406 0,-35"
         style="fill:none;stroke:#000000;stroke-width:1px;stroke-linecap:butt;stroke-linejoin:miter;stroke-opacity:1" />
      <path
         inkscape:connector-curvature="0"
         id="path3845"
         d="M 685,415 576,361"
         style="fill:none;stroke:#000000;stroke-width:1px;stroke-linecap:butt;stroke-linejoin:miter;stroke-opacity:1" />
    </g>
    <g
       id="g3937"
       transform="matrix(0.18082558,0,0,0.18082558,94.9446,203.36831)">
      <g
         transform="matrix(-1,0,0,1,1528,-254)"
         id="g3865">
        <g
           id="g3867">
          <g
             id="g3869">
            <path
               sodipodi:nodetypes="cccccc"
               inkscape:connector-curvature="0"
               id="path3871"
               d="m 720,460 c -1,-4 -8,-30 -8,-30 l -166,-64 32,26 6,55 c -7.14692,42.68429 79.53492,16.80141 136,13 z"
               style="fill:#e6e6e6;stroke:#000000;stroke-width:1px;stroke-linecap:butt;stroke-linejoin:miter;stroke-opacity:1" />
            <path
               style="fill:#ffffff;stroke:none"
               d="m 706,456.42727 c -0.83333,-3.5501 -6.66666,-26.62573 -6.66666,-26.62573 L 561,373 l 26.66667,23.07563 13,48.81383 C 594.7109,482.77279 658.94577,459.80111 706,456.42727 z"
               id="path3873"
               inkscape:connector-curvature="0"
               sodipodi:nodetypes="cccccc" />
          </g>
          <path
             style="fill:#000000;stroke:#000000;stroke-width:1px;stroke-linecap:butt;stroke-linejoin:miter;stroke-opacity:1"
             d="m 604,389 66,25 c 19.7044,8.81447 36.22693,19.21987 14,49 l -54,6 c -48.13239,-37.05238 -23.62829,-54.9899 -26,-80 z"
             id="path3875"
             inkscape:connector-curvature="0"
             sodipodi:nodetypes="ccccc" />
          <path
             sodipodi:nodetypes="ccccc"
             inkscape:connector-curvature="0"
             id="path3877"
             d="m 609.53145,394 58.575,22.1875 c 17.48765,7.82284 32.1514,17.05763 12.425,43.4875 l -47.925,5.325 c -42.7175,-32.88399 -20.97011,-48.80354 -23.075,-71 z"
             style="fill:url(#linearGradient3973);fill-opacity:1;stroke:none" />
          <g
             id="g3879"
             transform="matrix(0.24156441,-0.10736091,0.10736091,0.24156441,437.12109,435.3529)">
            <path
               inkscape:connector-curvature="0"
               id="path3881"
               d="m 616,231 54,-38 54,7 -44,38 z"
               style="fill:#ffffff;stroke:#000000;stroke-width:1px;stroke-linecap:butt;stroke-linejoin:miter;stroke-opacity:1" />
            <path
               sodipodi:nodetypes="ccccc"
               inkscape:connector-curvature="0"
               id="path3883"
               d="m 612,258 c 5,0 61,2 61,2 -3.46967,31.37204 -13.19203,66.21779 6,85 -17.28947,21.05256 -35.23416,51.27818 -50,37 -18.13689,-33.53944 -20.05394,-77.21628 -17,-124 z"
               style="fill:#ffffff;stroke:#000000;stroke-width:1px;stroke-linecap:butt;stroke-linejoin:miter;stroke-opacity:1" />
          </g>
          <path
             style="fill:#ffffff;stroke:#000000;stroke-width:0.12384575px;stroke-linecap:butt;stroke-linejoin:miter;stroke-opacity:1"
             d="m 652.56192,418.56735 c 0,0 1.73384,-5.94459 3.83922,-5.32536 2.10538,0.61922 21.17762,9.90766 21.17762,9.90766 l 1.23846,9.28843 c -15.00023,-19.56555 -17.9901,-10.4107 -26.2553,-13.87073 z"
             id="path3885"
             inkscape:connector-curvature="0"
             sodipodi:nodetypes="csccc" />
        </g>
        <path
           sodipodi:nodetypes="ccccccc"
           inkscape:connector-curvature="0"
           id="path3887"
           d="m 717.03873,414.18765 c -4.59271,-1.01965 -156.003,-85.96271 -156.003,-85.96271 l -27.55622,14.78488 -20.66716,7.64736 51.28519,-43.84483 151.09011,64.15918 z"
           style="fill:#000000;stroke:#000000;stroke-width:0.62469572px;stroke-linecap:butt;stroke-linejoin:miter;stroke-opacity:1" />
        <path
           inkscape:connector-curvature="0"
           id="path3889"
           d="m 714,424 -144,-79 -26,2"
           style="fill:none;stroke:#000000;stroke-width:1px;stroke-linecap:butt;stroke-linejoin:miter;stroke-opacity:1" />
        <path
           inkscape:connector-curvature="0"
           id="path3891"
           d="m 731,402 1,39 -12,-18"
           style="fill:none;stroke:#000000;stroke-width:1px;stroke-linecap:butt;stroke-linejoin:miter;stroke-opacity:1" />
        <path
           inkscape:connector-curvature="0"
           id="path3893"
           d="m 727,452 7,4 5,-29"
           style="fill:none;stroke:#000000;stroke-width:1px;stroke-linecap:butt;stroke-linejoin:miter;stroke-opacity:1" />
        <path
           inkscape:connector-curvature="0"
           id="path3895"
           d="m 739,406 0,-35"
           style="fill:none;stroke:#000000;stroke-width:1px;stroke-linecap:butt;stroke-linejoin:miter;stroke-opacity:1" />
        <path
           inkscape:connector-curvature="0"
           id="path3897"
           d="M 685,415 576,361"
           style="fill:none;stroke:#000000;stroke-width:1px;stroke-linecap:butt;stroke-linejoin:miter;stroke-opacity:1" />
      </g>
      <g
         id="g3901"
         transform="translate(26.999998,-256)">
        <g
           id="g3903">
          <g
             id="g3905">
            <path
               style="fill:#e6e6e6;stroke:#000000;stroke-width:1px;stroke-linecap:butt;stroke-linejoin:miter;stroke-opacity:1"
               d="m 720,460 c -1,-4 -8,-30 -8,-30 l -166,-64 32,26 6,55 c -7.14692,42.68429 79.53492,16.80141 136,13 z"
               id="path3907"
               inkscape:connector-curvature="0"
               sodipodi:nodetypes="cccccc" />
            <path
               sodipodi:nodetypes="cccccc"
               inkscape:connector-curvature="0"
               id="path3909"
               d="m 706,456.42727 c -0.83333,-3.5501 -6.66666,-26.62573 -6.66666,-26.62573 L 561,373 l 26.66667,23.07563 13,48.81383 C 594.7109,482.77279 658.94577,459.80111 706,456.42727 z"
               style="fill:#ffffff;stroke:none" />
          </g>
          <path
             sodipodi:nodetypes="ccccc"
             inkscape:connector-curvature="0"
             id="path3911"
             d="m 604,389 66,25 c 19.7044,8.81447 36.22693,19.21987 14,49 l -54,6 c -48.13239,-37.05238 -23.62829,-54.9899 -26,-80 z"
             style="fill:#000000;stroke:#000000;stroke-width:1px;stroke-linecap:butt;stroke-linejoin:miter;stroke-opacity:1" />
          <path
             style="fill:url(#linearGradient3975);fill-opacity:1;stroke:none"
             d="m 609.53145,394 58.575,22.1875 c 17.48765,7.82284 32.1514,17.05763 12.425,43.4875 l -47.925,5.325 c -42.7175,-32.88399 -20.97011,-48.80354 -23.075,-71 z"
             id="path3913"
             inkscape:connector-curvature="0"
             sodipodi:nodetypes="ccccc" />
          <g
             transform="matrix(0.24156441,-0.10736091,0.10736091,0.24156441,437.12109,435.3529)"
             id="g3915">
            <path
               style="fill:#ffffff;stroke:#000000;stroke-width:1px;stroke-linecap:butt;stroke-linejoin:miter;stroke-opacity:1"
               d="m 616,231 54,-38 54,7 -44,38 z"
               id="path3917"
               inkscape:connector-curvature="0" />
            <path
               style="fill:#ffffff;stroke:#000000;stroke-width:1px;stroke-linecap:butt;stroke-linejoin:miter;stroke-opacity:1"
               d="m 612,258 c 5,0 61,2 61,2 -3.46967,31.37204 -13.19203,66.21779 6,85 -17.28947,21.05256 -35.23416,51.27818 -50,37 -18.13689,-33.53944 -20.05394,-77.21628 -17,-124 z"
               id="path3919"
               inkscape:connector-curvature="0"
               sodipodi:nodetypes="ccccc" />
          </g>
          <path
             sodipodi:nodetypes="csccc"
             inkscape:connector-curvature="0"
             id="path3921"
             d="m 652.56192,418.56735 c 0,0 1.73384,-5.94459 3.83922,-5.32536 2.10538,0.61922 21.17762,9.90766 21.17762,9.90766 l 1.23846,9.28843 c -15.00023,-19.56555 -17.9901,-10.4107 -26.2553,-13.87073 z"
             style="fill:#ffffff;stroke:#000000;stroke-width:0.12384575px;stroke-linecap:butt;stroke-linejoin:miter;stroke-opacity:1" />
        </g>
        <path
           style="fill:#000000;stroke:#000000;stroke-width:0.62469572px;stroke-linecap:butt;stroke-linejoin:miter;stroke-opacity:1"
           d="m 717.03873,414.18765 c -4.59271,-1.01965 -156.003,-85.96271 -156.003,-85.96271 l -27.55622,14.78488 -20.66716,7.64736 51.28519,-43.84483 151.09011,64.15918 z"
           id="path3923"
           inkscape:connector-curvature="0"
           sodipodi:nodetypes="ccccccc" />
        <path
           style="fill:none;stroke:#000000;stroke-width:1px;stroke-linecap:butt;stroke-linejoin:miter;stroke-opacity:1"
           d="m 714,424 -144,-79 -26,2"
           id="path3925"
           inkscape:connector-curvature="0" />
        <path
           style="fill:none;stroke:#000000;stroke-width:1px;stroke-linecap:butt;stroke-linejoin:miter;stroke-opacity:1"
           d="m 731,402 1,39 -12,-18"
           id="path3927"
           inkscape:connector-curvature="0" />
        <path
           style="fill:none;stroke:#000000;stroke-width:1px;stroke-linecap:butt;stroke-linejoin:miter;stroke-opacity:1"
           d="m 727,452 7,4 5,-29"
           id="path3929"
           inkscape:connector-curvature="0" />
        <path
           style="fill:none;stroke:#000000;stroke-width:1px;stroke-linecap:butt;stroke-linejoin:miter;stroke-opacity:1"
           d="m 739,406 0,-35"
           id="path3931"
           inkscape:connector-curvature="0" />
        <path
           style="fill:none;stroke:#000000;stroke-width:1px;stroke-linecap:butt;stroke-linejoin:miter;stroke-opacity:1"
           d="M 685,415 576,361"
           id="path3933"
           inkscape:connector-curvature="0" />
      </g>
    </g>
    <g
       id="g4096"
       transform="matrix(0.34490767,0.11551041,-0.11551041,0.34490767,329.38851,199.29675)">
      <path
         sodipodi:nodetypes="ccsssc"
         inkscape:connector-curvature="0"
         id="path4071"
         d="m 152,496 c 2.23335,24.87668 8.48208,79.851 2.70687,93.1407 C 127.51676,597.47745 108.44894,599.70633 86.5,597 63.823798,594.204 68,560.82338 68,531 c 0,-29.82338 -15.628956,-41 9.5,-41 25.12896,0 65.26613,-22.35788 74.5,6 z"
         style="fill:#ff0000;fill-opacity:1;stroke:none"
         transform="translate(2,-17)" />
      <path
         sodipodi:nodetypes="cssssc"
         inkscape:connector-curvature="0"
         id="path4094"
         d="m 79.396617,507.03388 c 4.019727,-1.29597 23.871973,4.59969 24.326383,10.91555 0.4544,6.31585 -3.98477,30.36531 3.69466,34.91724 7.67944,4.55193 20.04273,2.74699 14.96388,-12.8216 -5.07885,-15.56857 -12.09065,-31.5641 -5.37596,-30.417 6.7147,1.14711 21.00746,-13.47438 21.00746,-13.47438"
         style="fill:#aa0000;stroke:#000000;stroke-width:0.56983465px;stroke-linecap:butt;stroke-linejoin:miter;stroke-opacity:1" />
      <g
         id="g4063">
        <path
           style="fill:#ffffff;stroke:#000000;stroke-width:1px;stroke-linecap:butt;stroke-linejoin:miter;stroke-opacity:1"
           d="m 71,479 12,63 3,-48 9,18 13,-20 16,20 4,-24 7,20 c 0,0 3,-27 5,-23 2,4 10,40 10,40 l -2,-54 z"
           id="path4051"
           inkscape:connector-curvature="0" />
        <path
           style="fill:none;stroke:#000000;stroke-width:1px;stroke-linecap:butt;stroke-linejoin:miter;stroke-opacity:1"
           d="m 87,478 c -1.15905,7.6304 4.452368,16.90474 6,20"
           id="path4053"
           inkscape:connector-curvature="0" />
        <path
           style="fill:none;stroke:#000000;stroke-width:1px;stroke-linecap:butt;stroke-linejoin:miter;stroke-opacity:1"
           d="m 106,476 c 0,7 0,14 0,21"
           id="path4055"
           inkscape:connector-curvature="0" />
        <path
           style="fill:none;stroke:#000000;stroke-width:1px;stroke-linecap:butt;stroke-linejoin:miter;stroke-opacity:1"
           d="m 124,472 c -0.73042,8.63326 2.82361,22.47084 4,26"
           id="path4057"
           inkscape:connector-curvature="0" />
        <path
           style="fill:none;stroke:#000000;stroke-width:1px;stroke-linecap:butt;stroke-linejoin:miter;stroke-opacity:1"
           d="m 144,472 c -1.14542,7.07833 1.11715,16.76569 -2,23"
           id="path4059"
           inkscape:connector-curvature="0" />
        <path
           style="fill:none;stroke:#000000;stroke-width:1px;stroke-linecap:butt;stroke-linejoin:miter;stroke-opacity:1"
           d="m 84,478 c -1.007451,8.42885 0.602388,14.20478 4,21"
           id="path4061"
           inkscape:connector-curvature="0" />
      </g>
      <g
         transform="matrix(0.63278412,0,0,0.63278412,-131.26794,184.59831)"
         id="g4086">
        <path
           style="fill:#ffffff;stroke:#000000;stroke-width:1px;stroke-linecap:butt;stroke-linejoin:miter;stroke-opacity:1"
           d="m 332,621 c 4,-2 20,-47 20,-47 l 5,28 66,-3 14,-22 c 0,0 29,42 10,40 -19,-2 -115,4 -115,4 z"
           id="path4074"
           inkscape:connector-curvature="0" />
        <path
           style="fill:none;stroke:#000000;stroke-width:1px;stroke-linecap:butt;stroke-linejoin:miter;stroke-opacity:1"
           d="m 360,602 c -0.52988,8.13331 5,13.58069 5,21"
           id="path4076"
           inkscape:connector-curvature="0" />
        <path
           style="fill:none;stroke:#000000;stroke-width:1px;stroke-linecap:butt;stroke-linejoin:miter;stroke-opacity:1"
           d="m 376,602 c 1.97387,2.90342 8,30.62441 8,19"
           id="path4078"
           inkscape:connector-curvature="0" />
        <path
           style="fill:none;stroke:#000000;stroke-width:1px;stroke-linecap:butt;stroke-linejoin:miter;stroke-opacity:1"
           d="m 396,604 c 1.66149,5.21116 -5.52,30.04 1,17"
           id="path4080"
           inkscape:connector-curvature="0" />
        <path
           style="fill:none;stroke:#000000;stroke-width:1px;stroke-linecap:butt;stroke-linejoin:miter;stroke-opacity:1"
           d="m 416,598 c 1.04516,6.87124 -2.02763,15.94473 1,22"
           id="path4082"
           inkscape:connector-curvature="0" />
        <path
           style="fill:none;stroke:#000000;stroke-width:1px;stroke-linecap:butt;stroke-linejoin:miter;stroke-opacity:1"
           d="m 425,599 c 9.59701,1.44903 8.13623,16.13623 11,19"
           id="path4084"
           inkscape:connector-curvature="0" />
      </g>
    </g>
    <g
       transform="matrix(0.15770488,0,0,0.27470565,200.42095,312.92672)"
       id="g3977">
      <g
         id="g3979"
         transform="matrix(-1,0,0,1,1528,-254)">
        <g
           id="g3981">
          <g
             id="g3983">
            <path
               style="fill:#e6e6e6;stroke:#000000;stroke-width:1px;stroke-linecap:butt;stroke-linejoin:miter;stroke-opacity:1"
               d="m 720,460 c -1,-4 -8,-30 -8,-30 l -166,-64 32,26 6,55 c -7.14692,42.68429 79.53492,16.80141 136,13 z"
               id="path3985"
               inkscape:connector-curvature="0"
               sodipodi:nodetypes="cccccc" />
            <path
               sodipodi:nodetypes="cccccc"
               inkscape:connector-curvature="0"
               id="path3987"
               d="m 706,456.42727 c -0.83333,-3.5501 -6.66666,-26.62573 -6.66666,-26.62573 L 561,373 l 26.66667,23.07563 13,48.81383 C 594.7109,482.77279 658.94577,459.80111 706,456.42727 z"
               style="fill:#ffffff;stroke:none" />
          </g>
          <path
             sodipodi:nodetypes="ccccc"
             inkscape:connector-curvature="0"
             id="path3989"
             d="m 604,389 66,25 c 19.7044,8.81447 36.22693,19.21987 14,49 l -54,6 c -48.13239,-37.05238 -23.62829,-54.9899 -26,-80 z"
             style="fill:#000000;stroke:#000000;stroke-width:1px;stroke-linecap:butt;stroke-linejoin:miter;stroke-opacity:1" />
          <path
             style="fill:url(#linearGradient4047);fill-opacity:1;stroke:none"
             d="m 609.53145,394 58.575,22.1875 c 17.48765,7.82284 32.1514,17.05763 12.425,43.4875 l -47.925,5.325 c -42.7175,-32.88399 -20.97011,-48.80354 -23.075,-71 z"
             id="path3991"
             inkscape:connector-curvature="0"
             sodipodi:nodetypes="ccccc" />
          <g
             transform="matrix(0.24156441,-0.10736091,0.10736091,0.24156441,437.12109,435.3529)"
             id="g3993">
            <path
               style="fill:#ffffff;stroke:#000000;stroke-width:1px;stroke-linecap:butt;stroke-linejoin:miter;stroke-opacity:1"
               d="m 616,231 54,-38 54,7 -44,38 z"
               id="path3995"
               inkscape:connector-curvature="0" />
            <path
               style="fill:#ffffff;stroke:#000000;stroke-width:1px;stroke-linecap:butt;stroke-linejoin:miter;stroke-opacity:1"
               d="m 612,258 c 5,0 61,2 61,2 -3.46967,31.37204 -13.19203,66.21779 6,85 -17.28947,21.05256 -35.23416,51.27818 -50,37 -18.13689,-33.53944 -20.05394,-77.21628 -17,-124 z"
               id="path3997"
               inkscape:connector-curvature="0"
               sodipodi:nodetypes="ccccc" />
          </g>
          <path
             sodipodi:nodetypes="csccc"
             inkscape:connector-curvature="0"
             id="path3999"
             d="m 652.56192,418.56735 c 0,0 1.73384,-5.94459 3.83922,-5.32536 2.10538,0.61922 21.17762,9.90766 21.17762,9.90766 l 1.23846,9.28843 c -15.00023,-19.56555 -17.9901,-10.4107 -26.2553,-13.87073 z"
             style="fill:#ffffff;stroke:#000000;stroke-width:0.12384575px;stroke-linecap:butt;stroke-linejoin:miter;stroke-opacity:1" />
        </g>
        <path
           style="fill:#000000;stroke:#000000;stroke-width:0.62469572px;stroke-linecap:butt;stroke-linejoin:miter;stroke-opacity:1"
           d="m 717.03873,414.18765 c -4.59271,-1.01965 -156.003,-85.96271 -156.003,-85.96271 l -27.55622,14.78488 -20.66716,7.64736 51.28519,-43.84483 151.09011,64.15918 z"
           id="path4001"
           inkscape:connector-curvature="0"
           sodipodi:nodetypes="ccccccc" />
        <path
           style="fill:none;stroke:#000000;stroke-width:1px;stroke-linecap:butt;stroke-linejoin:miter;stroke-opacity:1"
           d="m 714,424 -144,-79 -26,2"
           id="path4003"
           inkscape:connector-curvature="0" />
        <path
           style="fill:none;stroke:#000000;stroke-width:1px;stroke-linecap:butt;stroke-linejoin:miter;stroke-opacity:1"
           d="m 731,402 1,39 -12,-18"
           id="path4005"
           inkscape:connector-curvature="0" />
        <path
           style="fill:none;stroke:#000000;stroke-width:1px;stroke-linecap:butt;stroke-linejoin:miter;stroke-opacity:1"
           d="m 727,452 7,4 5,-29"
           id="path4007"
           inkscape:connector-curvature="0" />
        <path
           style="fill:none;stroke:#000000;stroke-width:1px;stroke-linecap:butt;stroke-linejoin:miter;stroke-opacity:1"
           d="m 739,406 0,-35"
           id="path4009"
           inkscape:connector-curvature="0" />
        <path
           style="fill:none;stroke:#000000;stroke-width:1px;stroke-linecap:butt;stroke-linejoin:miter;stroke-opacity:1"
           d="M 685,415 576,361"
           id="path4011"
           inkscape:connector-curvature="0" />
      </g>
      <g
         transform="translate(26.999998,-256)"
         id="g4013">
        <g
           id="g4015">
          <g
             id="g4017">
            <path
               sodipodi:nodetypes="cccccc"
               inkscape:connector-curvature="0"
               id="path4019"
               d="m 720,460 c -1,-4 -8,-30 -8,-30 l -166,-64 32,26 6,55 c -7.14692,42.68429 79.53492,16.80141 136,13 z"
               style="fill:#e6e6e6;stroke:#000000;stroke-width:1px;stroke-linecap:butt;stroke-linejoin:miter;stroke-opacity:1" />
            <path
               style="fill:#ffffff;stroke:none"
               d="m 706,456.42727 c -0.83333,-3.5501 -6.66666,-26.62573 -6.66666,-26.62573 L 561,373 l 26.66667,23.07563 13,48.81383 C 594.7109,482.77279 658.94577,459.80111 706,456.42727 z"
               id="path4021"
               inkscape:connector-curvature="0"
               sodipodi:nodetypes="cccccc" />
          </g>
          <path
             style="fill:#000000;stroke:#000000;stroke-width:1px;stroke-linecap:butt;stroke-linejoin:miter;stroke-opacity:1"
             d="m 604,389 66,25 c 19.7044,8.81447 36.22693,19.21987 14,49 l -54,6 c -48.13239,-37.05238 -23.62829,-54.9899 -26,-80 z"
             id="path4023"
             inkscape:connector-curvature="0"
             sodipodi:nodetypes="ccccc" />
          <path
             sodipodi:nodetypes="ccccc"
             inkscape:connector-curvature="0"
             id="path4025"
             d="m 609.53145,394 58.575,22.1875 c 17.48765,7.82284 32.1514,17.05763 12.425,43.4875 l -47.925,5.325 c -42.7175,-32.88399 -20.97011,-48.80354 -23.075,-71 z"
             style="fill:url(#linearGradient4049);fill-opacity:1;stroke:none" />
          <g
             id="g4027"
             transform="matrix(0.24156441,-0.10736091,0.10736091,0.24156441,437.12109,435.3529)">
            <path
               inkscape:connector-curvature="0"
               id="path4029"
               d="m 616,231 54,-38 54,7 -44,38 z"
               style="fill:#ffffff;stroke:#000000;stroke-width:1px;stroke-linecap:butt;stroke-linejoin:miter;stroke-opacity:1" />
            <path
               sodipodi:nodetypes="ccccc"
               inkscape:connector-curvature="0"
               id="path4031"
               d="m 612,258 c 5,0 61,2 61,2 -3.46967,31.37204 -13.19203,66.21779 6,85 -17.28947,21.05256 -35.23416,51.27818 -50,37 -18.13689,-33.53944 -20.05394,-77.21628 -17,-124 z"
               style="fill:#ffffff;stroke:#000000;stroke-width:1px;stroke-linecap:butt;stroke-linejoin:miter;stroke-opacity:1" />
          </g>
          <path
             style="fill:#ffffff;stroke:#000000;stroke-width:0.12384575px;stroke-linecap:butt;stroke-linejoin:miter;stroke-opacity:1"
             d="m 652.56192,418.56735 c 0,0 1.73384,-5.94459 3.83922,-5.32536 2.10538,0.61922 21.17762,9.90766 21.17762,9.90766 l 1.23846,9.28843 c -15.00023,-19.56555 -17.9901,-10.4107 -26.2553,-13.87073 z"
             id="path4033"
             inkscape:connector-curvature="0"
             sodipodi:nodetypes="csccc" />
        </g>
        <path
           sodipodi:nodetypes="ccccccc"
           inkscape:connector-curvature="0"
           id="path4035"
           d="m 717.03873,414.18765 c -4.59271,-1.01965 -156.003,-85.96271 -156.003,-85.96271 l -27.55622,14.78488 -20.66716,7.64736 51.28519,-43.84483 151.09011,64.15918 z"
           style="fill:#000000;stroke:#000000;stroke-width:0.62469572px;stroke-linecap:butt;stroke-linejoin:miter;stroke-opacity:1" />
        <path
           inkscape:connector-curvature="0"
           id="path4037"
           d="m 714,424 -144,-79 -26,2"
           style="fill:none;stroke:#000000;stroke-width:1px;stroke-linecap:butt;stroke-linejoin:miter;stroke-opacity:1" />
        <path
           inkscape:connector-curvature="0"
           id="path4039"
           d="m 731,402 1,39 -12,-18"
           style="fill:none;stroke:#000000;stroke-width:1px;stroke-linecap:butt;stroke-linejoin:miter;stroke-opacity:1" />
        <path
           inkscape:connector-curvature="0"
           id="path4041"
           d="m 727,452 7,4 5,-29"
           style="fill:none;stroke:#000000;stroke-width:1px;stroke-linecap:butt;stroke-linejoin:miter;stroke-opacity:1" />
        <path
           inkscape:connector-curvature="0"
           id="path4043"
           d="m 739,406 0,-35"
           style="fill:none;stroke:#000000;stroke-width:1px;stroke-linecap:butt;stroke-linejoin:miter;stroke-opacity:1" />
        <path
           inkscape:connector-curvature="0"
           id="path4045"
           d="M 685,415 576,361"
           style="fill:none;stroke:#000000;stroke-width:1px;stroke-linecap:butt;stroke-linejoin:miter;stroke-opacity:1" />
      </g>
    </g>
    <g
       id="g4122"
       transform="matrix(0.2994235,0.07323402,-0.07323402,0.2994235,146.83138,222.00042)"
       inkscape:transform-center-x="-18.919558"
       inkscape:transform-center-y="24.624856">
      <path
         sodipodi:nodetypes="cccccccccccc"
         inkscape:connector-curvature="0"
         id="path4114"
         d="m 573,408 -64.63842,-5.38172 C 484.08568,460.34587 433.94625,518.70538 434,574 c -0.27476,17.98068 16.98447,15.92252 35,13 l 259,-25 54,-41 29,-13 c 1.87668,-13.8025 37.61503,-36.07042 -8,-38 l -52,15 -37,32 c -77,9 -111.39519,-37.73393 -167,11 38.15663,-39.19154 56.5337,-86.09234 26,-120 z"
         style="fill:#7c7c7c;fill-opacity:0.99509493;stroke:#000000;stroke-width:1px;stroke-linecap:butt;stroke-linejoin:miter;stroke-opacity:1" />
      <path
         style="fill:#999999;fill-opacity:0.99509493;stroke:none"
         d="M 568.53907,407.67902 512.71178,402 c -22.97723,54.63938 -57.7876,110.46208 -57.73673,162.79864 -0.26006,17.01879 16.07587,15.07073 33.12763,12.30455 l 245.14447,-23.66259 51.11121,-38.80665 27.44861,-12.30455 c 1.77628,-13.06412 31.60276,-26.14079 -11.57203,-27.96715 l -47.2182,18.19756 -35.02064,30.28812 c -71.76982,8.76541 -79.34997,-30.36287 -174.06612,6.41154 36.11539,-37.09494 53.50936,-89.48672 24.60909,-121.58045 z"
         id="path4116"
         inkscape:connector-curvature="0"
         sodipodi:nodetypes="cccccccccccc" />
      <path
         inkscape:connector-curvature="0"
         id="path4118"
         d="m 530.95327,435.16376 c 0,0 -26.88146,30.08956 -27.25735,65.4443 -0.37589,35.35473 1.25781,41.32065 1.25781,41.32065 l -25.11283,13.22925 c 0,0 -12.86244,-54.5493 10.02392,-86.40265 22.88635,-31.85335 23.71526,-59.14109 23.71526,-59.14109 l 37.51744,5.83564 z"
         style="fill:#7c7c7c;fill-opacity:0.99607915;stroke:none" />
      <path
         style="opacity:0.55823292;fill:#7c7c7c;fill-opacity:0.99607915;stroke:none"
         d="m 566.97756,541.03305 c 0,0 38.29801,9.18322 70.18521,3.16739 31.88721,-6.01583 36.55496,-7.94486 36.55496,-7.94486 l 22.42356,11.19624 c 0,0 -43.5515,16.52052 -81.75392,9.79885 -38.20241,-6.72168 -63.04018,-2.36862 -63.04018,-2.36862 l -10.52535,-21.22917 z"
         id="path4120"
         inkscape:connector-curvature="0" />
    </g>
    <g
       id="g4148"
       transform="translate(411,-53)">
      <path
         sodipodi:nodetypes="cccccccccccc"
         inkscape:connector-curvature="0"
         id="path4138"
         d="m 398,547 c 13.33528,-42.9922 36.33567,-47.32397 71,-5 l 1,106 -9,40 -51,53 1,23 c -15.42179,45.63281 -24.51045,30.04543 -32,-1 l -1,-60 25,-3 24,-31 8,-34 z"
         style="fill:#999999;fill-opacity:1;stroke:#000000;stroke-width:1px;stroke-linecap:butt;stroke-linejoin:miter;stroke-opacity:1" />
      <path
         sodipodi:nodetypes="ccccc"
         inkscape:connector-curvature="0"
         id="path4140"
         d="m 409,529 c 0,29 34,99 34,99 l -8,4 -37,-87 z"
         style="fill:#808080;fill-opacity:1;stroke:none" />
      <path
         sodipodi:nodetypes="cccc"
         inkscape:connector-curvature="0"
         id="path4142"
         d="m 436,517 30,24 5,91 c -7.84549,-41.00816 -2.87322,-90.98875 -35,-115 z"
         style="fill:#808080;fill-opacity:1;stroke:none" />
      <path
         inkscape:connector-curvature="0"
         id="path4144"
         d="m 380,702 22,-2 1,10 c 0,0 -17,1 -16,5 1,4 6,73 6,73 l -14,-22 z"
         style="fill:#808080;fill-opacity:1;stroke:none" />
      <path
         inkscape:connector-curvature="0"
         id="path4146"
         d="m 411,703 c 0,0 20,-13 30,-31 10,-18 2,-39 2,-39 0,0 -8,5 -10,15 -2,10 -7,26 -7,26 l -17,20 z"
         style="fill:#8f8f8f;fill-opacity:1;stroke:none" />
    </g>
    <g
       transform="matrix(0.38472027,0,0,0.38472027,336.2681,468.96841)"
       id="g4155">
      <path
         style="fill:#999999;fill-opacity:1;stroke:#000000;stroke-width:1px;stroke-linecap:butt;stroke-linejoin:miter;stroke-opacity:1"
         d="m 398,547 c 13.33528,-42.9922 36.33567,-47.32397 71,-5 l 1,106 -9,40 -51,53 1,23 c -15.42179,45.63281 -24.51045,30.04543 -32,-1 l -1,-60 25,-3 24,-31 8,-34 z"
         id="path4157"
         inkscape:connector-curvature="0"
         sodipodi:nodetypes="cccccccccccc" />
      <path
         style="fill:#808080;fill-opacity:1;stroke:none"
         d="m 409,529 c 0,29 34,99 34,99 l -8,4 -37,-87 z"
         id="path4159"
         inkscape:connector-curvature="0"
         sodipodi:nodetypes="ccccc" />
      <path
         style="fill:#808080;fill-opacity:1;stroke:none"
         d="m 436,517 30,24 5,91 c -7.84549,-41.00816 -2.87322,-90.98875 -35,-115 z"
         id="path4161"
         inkscape:connector-curvature="0"
         sodipodi:nodetypes="cccc" />
      <path
         style="fill:#808080;fill-opacity:1;stroke:none"
         d="m 380,702 22,-2 1,10 c 0,0 -17,1 -16,5 1,4 6,73 6,73 l -14,-22 z"
         id="path4163"
         inkscape:connector-curvature="0" />
      <path
         style="fill:#8f8f8f;fill-opacity:1;stroke:none"
         d="m 411,703 c 0,0 20,-13 30,-31 10,-18 2,-39 2,-39 0,0 -8,5 -10,15 -2,10 -7,26 -7,26 l -17,20 z"
         id="path4165"
         inkscape:connector-curvature="0" />
    </g>
  </g>
</svg>
