<?xml version="1.0" encoding="UTF-8" standalone="no"?>
<!-- Created with Inkscape (http://www.inkscape.org/) -->

<svg
   xmlns:dc="http://purl.org/dc/elements/1.1/"
   xmlns:cc="http://creativecommons.org/ns#"
   xmlns:rdf="http://www.w3.org/1999/02/22-rdf-syntax-ns#"
   xmlns:svg="http://www.w3.org/2000/svg"
   xmlns="http://www.w3.org/2000/svg"
   xmlns:xlink="http://www.w3.org/1999/xlink"
   xmlns:sodipodi="http://sodipodi.sourceforge.net/DTD/sodipodi-0.dtd"
   xmlns:inkscape="http://www.inkscape.org/namespaces/inkscape"
   width="744.09448819"
   height="1052.3622047"
   id="svg2"
   version="1.1"
   inkscape:version="0.48.2 r9819"
   sodipodi:docname="logonemesis.svg">
  <defs
     id="defs4">
    <linearGradient
       inkscape:collect="always"
       id="linearGradient3978">
      <stop
         style="stop-color:#ffffff;stop-opacity:1;"
         offset="0"
         id="stop3980" />
      <stop
         style="stop-color:#ffffff;stop-opacity:0;"
         offset="1"
         id="stop3982" />
    </linearGradient>
    <linearGradient
       inkscape:collect="always"
       id="linearGradient3988">
      <stop
         style="stop-color:#ffffff;stop-opacity:1;"
         offset="0"
         id="stop3990" />
      <stop
         style="stop-color:#ffffff;stop-opacity:0;"
         offset="1"
         id="stop3992" />
    </linearGradient>
    <linearGradient
       inkscape:collect="always"
       xlink:href="#linearGradient3978"
       id="linearGradient3102"
       gradientUnits="userSpaceOnUse"
       x1="171.2"
       y1="236"
       x2="172"
       y2="271.60001" />
    <linearGradient
       inkscape:collect="always"
       xlink:href="#linearGradient3988"
       id="linearGradient3104"
       gradientUnits="userSpaceOnUse"
       x1="255.2"
       y1="235.60001"
       x2="254.39999"
       y2="267.60001" />
    <linearGradient
       inkscape:collect="always"
       xlink:href="#linearGradient3978"
       id="linearGradient3152"
       gradientUnits="userSpaceOnUse"
       x1="171.2"
       y1="236"
       x2="172"
       y2="271.60001" />
    <linearGradient
       inkscape:collect="always"
       xlink:href="#linearGradient3988"
       id="linearGradient3154"
       gradientUnits="userSpaceOnUse"
       x1="255.2"
       y1="235.60001"
       x2="254.39999"
       y2="267.60001" />
    <linearGradient
       inkscape:collect="always"
       xlink:href="#linearGradient3978"
       id="linearGradient3201"
       gradientUnits="userSpaceOnUse"
       x1="171.2"
       y1="236"
       x2="172"
       y2="271.60001" />
    <linearGradient
       inkscape:collect="always"
       xlink:href="#linearGradient3988"
       id="linearGradient3203"
       gradientUnits="userSpaceOnUse"
       x1="255.2"
       y1="235.60001"
       x2="254.39999"
       y2="267.60001" />
    <linearGradient
       inkscape:collect="always"
       xlink:href="#linearGradient3978"
       id="linearGradient3257"
       gradientUnits="userSpaceOnUse"
       x1="171.2"
       y1="236"
       x2="172"
       y2="271.60001" />
    <linearGradient
       inkscape:collect="always"
       xlink:href="#linearGradient3988"
       id="linearGradient3259"
       gradientUnits="userSpaceOnUse"
       x1="255.2"
       y1="235.60001"
       x2="254.39999"
       y2="267.60001" />
  </defs>
  <sodipodi:namedview
     id="base"
     pagecolor="#ffffff"
     bordercolor="#666666"
     borderopacity="1.0"
     inkscape:pageopacity="0.0"
     inkscape:pageshadow="2"
     inkscape:zoom="1"
     inkscape:cx="490"
     inkscape:cy="532.39362"
     inkscape:document-units="px"
     inkscape:current-layer="layer1"
     showgrid="false"
     inkscape:window-width="1545"
     inkscape:window-height="718"
     inkscape:window-x="112"
     inkscape:window-y="260"
     inkscape:window-maximized="0" />
  <metadata
     id="metadata7">
    <rdf:RDF>
      <cc:Work
         rdf:about="">
        <dc:format>image/svg+xml</dc:format>
        <dc:type
           rdf:resource="http://purl.org/dc/dcmitype/StillImage" />
        <dc:title></dc:title>
      </cc:Work>
    </rdf:RDF>
  </metadata>
  <g
     inkscape:label="Layer 1"
     inkscape:groupmode="layer"
     id="layer1">
    <g
       id="g3289"
       inkscape:export-filename="/home/shialeweb/Desktop/1221.png"
       inkscape:export-xdpi="90"
       inkscape:export-ydpi="90">
      <g
         transform="translate(38,-113)"
         id="g3177">
        <rect
           style="fill:#e3dbde;fill-opacity:1;stroke:#5500d4;stroke-width:0.84327936"
           id="rect3156"
           width="483.15671"
           height="187.15672"
           x="103.92164"
           y="519.28381" />
        <g
           transform="matrix(0.5977449,0,0,0.5977449,109.20113,282.25632)"
           id="g3020">
          <path
             style="fill:#000000;stroke:#000000;stroke-width:1px;stroke-linecap:butt;stroke-linejoin:miter;stroke-opacity:1"
             d="m 69,510.36218 -63,9 -5,102 72,1 c 0,0 0,-21 -5,-21 -5,0 -39,-5 -39,-5 l -1,-28 38,-2 -10,-14 -26,0 0,-19 52,-8 z"
             id="path3022"
             inkscape:connector-curvature="0" />
          <path
             style="fill:#000000;stroke:#000000;stroke-width:1px;stroke-linecap:butt;stroke-linejoin:miter;stroke-opacity:1"
             d="m 300,493.36218 -61,61 39,67 58,-1 -5,-50 -51,-3 c 0,0 0,21 5,21 5,0 30,-2 30,-2 l 0,21 -32,-4 -25,-47 65,-59 z"
             id="path3024"
             inkscape:connector-curvature="0" />
          <path
             style="fill:#000000;stroke:#000000;stroke-width:1px;stroke-linecap:butt;stroke-linejoin:miter;stroke-opacity:1"
             d="m 340,622.36218 25,2 4,-37 27,-3 0,-12 -22,0 15,-37 33,88 c 0,0 24,10 18,-3 -6,-13 -48,-110 -48,-110 l -11,-2 z"
             id="path3026"
             inkscape:connector-curvature="0" />
          <path
             style="fill:#000000;stroke:#000000;stroke-width:1px;stroke-linecap:butt;stroke-linejoin:miter;stroke-opacity:1"
             d="m 413,513.36218 18,2 38,81 20,-70 25,1 c 0,0 -32,102 -35,97 -3,-5 -16,6 -16,0 0,-6 -50,-111 -50,-111 z"
             id="path3028"
             inkscape:connector-curvature="0" />
          <path
             style="fill:#000000;stroke:#000000;stroke-width:1px;stroke-linecap:butt;stroke-linejoin:miter;stroke-opacity:1"
             d="m 524,524.36218 26,0 -29,98 -18,3 z"
             id="path3030"
             inkscape:connector-curvature="0" />
          <path
             style="fill:#000000;stroke:#000000;stroke-width:1px;stroke-linecap:butt;stroke-linejoin:miter;stroke-opacity:1"
             d="m 558,523.36218 15,-2 -8,81 37,3 16,17 -70,-5 z"
             id="path3032"
             inkscape:connector-curvature="0" />
          <path
             style="fill:#000000;stroke:#000000;stroke-width:1px;stroke-linecap:butt;stroke-linejoin:miter;stroke-opacity:1"
             d="m 717,620.36218 17,0 4,-56 25,56 19,-2 3,-103 -17,4 0,67 -37,-46 z"
             id="path3034"
             inkscape:connector-curvature="0"
             sodipodi:nodetypes="cccccccccc" />
          <path
             inkscape:connector-curvature="0"
             id="path3036"
             d="m 95,526.36218 15,-2 -8,81 37,3 16,17 -70,-5 z"
             style="fill:#000000;stroke:#000000;stroke-width:1px;stroke-linecap:butt;stroke-linejoin:miter;stroke-opacity:1" />
          <path
             inkscape:connector-curvature="0"
             id="path3038"
             d="m 616,634.36218 25,2 4,-37 27,-3 0,-12 -22,0 15,-37 33,88 c 0,0 24,10 18,-3 -6,-13 -48,-110 -48,-110 l -11,-2 z"
             style="fill:#000000;stroke:#000000;stroke-width:1px;stroke-linecap:butt;stroke-linejoin:miter;stroke-opacity:1" />
        </g>
        <path
           style="fill:#000000;stroke:#000000;stroke-width:0.26609325px;stroke-linecap:butt;stroke-linejoin:miter;stroke-opacity:1"
           d="m 374.61584,552.61343 13.57076,-15.43341 17.82825,13.03857 19.95699,0.79828 1.33047,-10.37764 -6.38624,-4.25749 -4.78968,3.7253 -0.26609,-5.58795 6.65233,-5.85406 7.98279,-4.25749 c 0,0 10.37764,-2.66093 10.37764,3.45922 0,6.12014 -0.26609,13.57075 -0.26609,13.57075 l -0.2661,10.11154 18.09435,-0.79828 20.48918,-14.10294 12.24028,15.43341 6.12015,31.6651 -22.61793,-17.82825 c -13.25586,13.98754 -23.22854,8.27596 -34.59212,10.90982 l -1.06437,14.63513 -18.36044,0.26609 1.06438,-14.90122 c -10.64373,2.45768 -21.28746,-6.20781 -31.93119,-17.82825 l -23.15011,19.6909 z"
           id="path3130"
           inkscape:connector-curvature="0"
           sodipodi:nodetypes="ccccccccccscccccccccccccc" />
        <g
           transform="matrix(0.32295569,0,0,0.32295569,68.79391,457.874)"
           id="g3106">
          <g
             id="g3108"
             transform="translate(234,-196)">
            <path
               inkscape:connector-curvature="0"
               id="path3110"
               d="m 315,822.36218 0,-14 10,-1 87,65 18,13 c 0,0 7,28 -3,20 -10,-8 -40,-29 -40,-29 z"
               style="fill:#800000;fill-opacity:1;stroke:#000000;stroke-width:1px;stroke-linecap:butt;stroke-linejoin:miter;stroke-opacity:1" />
            <g
               id="g3112"
               transform="matrix(2.1026486,0,0,2.1026486,-141.26834,373.80398)">
              <g
                 id="g3114">
                <path
                   style="fill:url(#linearGradient3257);fill-opacity:1;stroke:#000000;stroke-width:1px;stroke-linecap:butt;stroke-linejoin:miter;stroke-opacity:1"
                   d="m 140,244 c 0,0 -3.6,-5.6 6,-6.8 9.6,-1.2 36,-0.8 42.4,0.4 6.4,1.2 14.4,3.2 16,6.8 1.6,3.6 1.2,4.4 -4.8,12 -6,7.6 -8.8,12.4 -11.2,12.8 -2.4,0.4 -48,-2.8 -48,-2.8 z"
                   id="path3116"
                   inkscape:connector-curvature="0" />
                <path
                   style="fill:url(#linearGradient3259);fill-opacity:1;stroke:#000000;stroke-width:1px;stroke-linecap:butt;stroke-linejoin:miter;stroke-opacity:1"
                   d="m 221.2,247.6 5.6,-5.6 18.8,-4.4 24,-1.2 4.8,7.2 0,8.4 -2.4,8 -7.6,8.4 -38.8,-0.4 -5.2,-3.2 z"
                   id="path3118"
                   inkscape:connector-curvature="0" />
              </g>
              <path
                 inkscape:connector-curvature="0"
                 id="path3120"
                 d="M 86,207.59375 81.1875,208 c 2,2 -0.38125,5.2125 1.21875,6.8125 1.6,1.6 5.59375,2 5.59375,2 l 40.40625,30.78125 8,4.40625 0.40625,5.1875 c 0.74194,5.74967 1.63163,11.32704 7.59375,10.8125 l 39.1875,2.8125 c 6.36119,-0.78184 12.9957,-1.26422 15.21875,-7.21875 L 205.1875,250 l 14,-0.40625 0,10.40625 c -1.71099,5.94991 1.60082,9.6249 8.40625,9.1875 0,0 36,0.025 36,1.625 0,1.6 10.40625,-8 10.40625,-8 l 3.1875,-15.21875 -4,-10 c -6.20295,-5.85793 -25.8238,-2.31084 -42,-1.1875 L 219.59375,244 204.8125,244 c -0.14469,-7.49849 -31.53543,-13.50693 -55.625,-10 l -14.375,1.59375 -9.625,0 -39.1875,-28 z M 152.40625,236 l 42.40625,4 c 6.89259,3.51145 10.77572,6.73681 6,9.1875 -3.47872,5.9518 -6.37451,14.29155 -10.8125,16.40625 -5.83066,3.81031 -27.86989,0.27467 -44.40625,-0.78125 -4.80856,1.20685 -4.84486,-1.41536 -4.40625,-4.40625 l 0.40625,-16 c -1.60872,-5.03231 5.29064,-6.4299 10.8125,-8.40625 z m 99.46875,2.15625 c 6.33281,0.0674 12.04571,1.01517 18.125,1.4375 l 2.40625,10 L 268.8125,262 l -5.21875,5.1875 -34,0 c -4.75985,0.0932 -7.74671,-1.55537 -7.1875,-6.78125 l 0,-14 L 230,242 c 8.58949,-3.09195 15.54219,-3.91116 21.875,-3.84375 z"
                 style="fill:#800000;stroke:#000000;stroke-width:1px;stroke-linecap:butt;stroke-linejoin:miter;stroke-opacity:1" />
            </g>
          </g>
          <path
             style="fill:#800000;fill-opacity:1;stroke:#000000;stroke-width:1px;stroke-linecap:butt;stroke-linejoin:miter;stroke-opacity:1"
             d="m 276,634.36218 c 0,0 -21,5 -21,18 0,13 -28,10 -24,-1 4,-11 27,-38 27,-38 0,0 20,-2 18,21 z"
             id="path3122"
             inkscape:connector-curvature="0" />
          <path
             style="fill:#800000;fill-opacity:1;stroke:#000000;stroke-width:1px;stroke-linecap:butt;stroke-linejoin:miter;stroke-opacity:1"
             d="m 566,631.36218 c 0,0 -21,5 -21,18 0,13 -28,10 -24,-1 4,-11 27,-38 27,-38 0,0 20,-2 18,21 z"
             id="path3124"
             inkscape:connector-curvature="0" />
        </g>
      </g>
      <text
         sodipodi:linespacing="125%"
         id="text3217"
         y="426.63483"
         x="228.96027"
         style="font-size:18.4262619px;font-style:normal;font-weight:normal;line-height:125%;letter-spacing:0px;word-spacing:0px;fill:#ff0000;fill-opacity:1;stroke:none;font-family:Sans"
         xml:space="preserve"><tspan
           style="font-weight:bold;text-align:center;text-anchor:middle;fill:#ff0000;-inkscape-font-specification:Sans Bold"
           y="426.63483"
           x="228.96027"
           id="tspan3219"
           sodipodi:role="line">Estreno</tspan><tspan
           style="font-weight:bold;text-align:center;text-anchor:middle;fill:#ff0000;-inkscape-font-specification:Sans Bold"
           id="tspan3221"
           y="449.66766"
           x="228.96027"
           sodipodi:role="line">Diciembre 2012</tspan></text>
      <text
         sodipodi:linespacing="125%"
         id="text3223"
         y="574.66089"
         x="330.64178"
         style="font-size:19.33400536px;font-style:normal;font-weight:normal;line-height:125%;letter-spacing:0px;word-spacing:0px;fill:#000000;fill-opacity:1;stroke:none;font-family:Sans"
         xml:space="preserve"><tspan
           y="574.66089"
           x="330.64178"
           id="tspan3225"
           sodipodi:role="line">www.elgavilan.shialeweb.com</tspan></text>
    </g>
  </g>
</svg>
