<?xml version="1.0" encoding="UTF-8" standalone="no"?>
<!-- Created with Inkscape (http://www.inkscape.org/) -->

<svg
   xmlns:dc="http://purl.org/dc/elements/1.1/"
   xmlns:cc="http://creativecommons.org/ns#"
   xmlns:rdf="http://www.w3.org/1999/02/22-rdf-syntax-ns#"
   xmlns:svg="http://www.w3.org/2000/svg"
   xmlns="http://www.w3.org/2000/svg"
   xmlns:sodipodi="http://sodipodi.sourceforge.net/DTD/sodipodi-0.dtd"
   xmlns:inkscape="http://www.inkscape.org/namespaces/inkscape"
   version="1.1"
   id="svg869"
   width="200"
   height="50"
   viewBox="0 0 200 50"
   sodipodi:docname="store_logo.svg"
   inkscape:version="0.92.3 (2405546, 2018-03-11)"
   inkscape:export-filename="/home/martha/Desktop/logo.png"
   inkscape:export-xdpi="96"
   inkscape:export-ydpi="96">
  <metadata
     id="metadata875">
    <rdf:RDF>
      <cc:Work
         rdf:about="">
        <dc:format>image/svg+xml</dc:format>
        <dc:type
           rdf:resource="http://purl.org/dc/dcmitype/StillImage" />
      </cc:Work>
    </rdf:RDF>
  </metadata>
  <defs
     id="defs873">
    <filter
       inkscape:collect="always"
       style="color-interpolation-filters:sRGB"
       id="filter1042"
       x="-0.0069369458"
       width="1.0138739"
       y="-0.044422713"
       height="1.0888454">
      <feGaussianBlur
         inkscape:collect="always"
         stdDeviation="0.40106688"
         id="feGaussianBlur1044" />
    </filter>
  </defs>
  <sodipodi:namedview
     pagecolor="#ffffff"
     bordercolor="#666666"
     borderopacity="1"
     objecttolerance="10"
     gridtolerance="10"
     guidetolerance="10"
     inkscape:pageopacity="0"
     inkscape:pageshadow="2"
     inkscape:window-width="1920"
     inkscape:window-height="1015"
     id="namedview871"
     showgrid="false"
     inkscape:zoom="1.7225"
     inkscape:cx="104.34176"
     inkscape:cy="16.910552"
     inkscape:window-x="0"
     inkscape:window-y="36"
     inkscape:window-maximized="1"
     inkscape:current-layer="svg869"
     inkscape:snap-global="false" />
  <g
     transform="translate(-4)"
     id="g1020"
     style="font-style:normal;font-weight:normal;font-size:27.99778366px;line-height:1.25;font-family:sans-serif;letter-spacing:0px;word-spacing:0px;fill:#0000ff;fill-opacity:1;stroke:#0000ff;stroke-width:1;stroke-miterlimit:4;stroke-dasharray:none;stroke-opacity:1;filter:url(#filter1042)"
     aria-label="La Tienda">
    <path
       inkscape:connector-curvature="0"
       id="path1004"
       style="font-style:normal;font-variant:normal;font-weight:normal;font-stretch:normal;font-family:'DejaVu Serif';-inkscape-font-specification:'DejaVu Serif';fill:#0000ff;fill-opacity:1;stroke:#0000ff;stroke-width:1;stroke-miterlimit:4;stroke-dasharray:none;stroke-opacity:1"
       d="m 61.241165,25.728439 v -1.449104 h 2.597451 V 6.7807205 H 61.241165 V 5.3179457 h 7.970072 v 1.4627748 h -2.59745 V 24.046932 h 9.32348 v -3.417698 h 1.681508 v 5.099205 z" />
    <path
       inkscape:connector-curvature="0"
       id="path1006"
       style="font-style:normal;font-variant:normal;font-weight:normal;font-stretch:normal;font-family:'DejaVu Serif';-inkscape-font-specification:'DejaVu Serif';fill:#0000ff;fill-opacity:1;stroke:#0000ff;stroke-width:1;stroke-miterlimit:4;stroke-dasharray:none;stroke-opacity:1"
       d="m 89.430339,21.162395 v -3.075929 h -3.239978 q -1.872898,0 -2.788842,0.806577 -0.915943,0.806577 -0.915943,2.474413 0,1.517458 0.929614,2.40606 0.929614,0.888601 2.515426,0.888601 1.572141,0 2.529097,-0.970626 0.970626,-0.970626 0.970626,-2.529096 z m 2.515426,-4.511362 v 7.628302 h 2.24201 v 1.449104 h -4.757436 v -1.572141 q -0.833918,1.011639 -1.927582,1.490117 -1.093663,0.478477 -2.556438,0.478477 -2.41973,0 -3.841493,-1.285054 -1.421762,-1.285055 -1.421762,-3.472382 0,-2.25568 1.626824,-3.499723 1.626824,-1.244042 4.593386,-1.244042 h 3.527065 v -0.997968 q 0,-1.654165 -1.011639,-2.556438 -0.997968,-0.915943 -2.816183,-0.915943 -1.503787,0 -2.392389,0.68354 -0.888601,0.683539 -1.107334,2.023277 h -1.298725 v -2.93922 q 1.312396,-0.560503 2.542767,-0.833919 1.244042,-0.287086 2.419731,-0.287086 3.021245,0 4.593386,1.503787 1.585812,1.490116 1.585812,4.347312 z" />
    <path
       inkscape:connector-curvature="0"
       id="path1008"
       style="font-style:normal;font-variant:normal;font-weight:normal;font-stretch:normal;font-family:'DejaVu Serif';-inkscape-font-specification:'DejaVu Serif';fill:#0000ff;fill-opacity:1;stroke:#0000ff;stroke-width:1;stroke-miterlimit:4;stroke-dasharray:none;stroke-opacity:1"
       d="m 109.22565,25.728439 v -1.449104 h 2.61112 V 6.94477 h -6.00148 v 3.185295 h -1.68151 V 5.3179457 h 18.12747 v 4.8121193 h -1.6815 V 6.94477 h -6.00148 v 17.334565 h 2.61112 v 1.449104 z" />
    <path
       inkscape:connector-curvature="0"
       id="path1010"
       style="font-style:normal;font-variant:normal;font-weight:normal;font-stretch:normal;font-family:'DejaVu Serif';-inkscape-font-specification:'DejaVu Serif';fill:#0000ff;fill-opacity:1;stroke:#0000ff;stroke-width:1;stroke-miterlimit:4;stroke-dasharray:none;stroke-opacity:1"
       d="m 125.3025,6.685025 q 0,-0.6288565 0.45114,-1.0936635 0.4648,-0.4648069 1.10733,-0.4648069 0.62886,0 1.07999,0.4648069 0.46481,0.464807 0.46481,1.0936635 0,0.6425272 -0.45114,1.0936634 -0.45113,0.4511361 -1.09366,0.4511361 -0.64253,0 -1.10733,-0.4511361 Q 125.3025,7.3275522 125.3025,6.685025 Z m 3.21264,17.59431 h 2.37871 v 1.449104 h -7.3002 v -1.449104 h 2.40606 V 12.659161 h -2.40606 v -1.462774 h 4.92149 z" />
    <path
       inkscape:connector-curvature="0"
       id="path1012"
       style="font-style:normal;font-variant:normal;font-weight:normal;font-stretch:normal;font-family:'DejaVu Serif';-inkscape-font-specification:'DejaVu Serif';fill:#0000ff;fill-opacity:1;stroke:#0000ff;stroke-width:1;stroke-miterlimit:4;stroke-dasharray:none;stroke-opacity:1"
       d="m 146.72463,18.728993 h -10.84094 v 0.109367 q 0,2.93922 1.10733,4.443007 1.10734,1.490117 3.26732,1.490117 1.65417,0 2.70682,-0.86126 1.06632,-0.874931 1.49012,-2.58378 h 2.02327 q -0.60151,2.392389 -2.22833,3.595419 -1.61316,1.203029 -4.25162,1.203029 -3.1853,0 -5.12655,-2.091631 -1.92758,-2.105302 -1.92758,-5.577683 0,-3.44504 1.90024,-5.550342 1.90024,-2.105302 4.98984,-2.105302 3.29466,0 5.05819,2.036948 1.76353,2.023277 1.83189,5.892111 z m -2.96656,-1.449104 q -0.082,-2.542767 -1.08,-3.827822 -0.98429,-1.298725 -2.84352,-1.298725 -1.73619,0 -2.73416,1.298725 -0.99797,1.298726 -1.2167,3.827822 z" />
    <path
       inkscape:connector-curvature="0"
       id="path1014"
       style="font-style:normal;font-variant:normal;font-weight:normal;font-stretch:normal;font-family:'DejaVu Serif';-inkscape-font-specification:'DejaVu Serif';fill:#0000ff;fill-opacity:1;stroke:#0000ff;stroke-width:1;stroke-miterlimit:4;stroke-dasharray:none;stroke-opacity:1"
       d="m 149.2674,25.728439 v -1.449104 h 2.26935 V 12.659161 h -2.40606 v -1.462774 h 4.92148 v 2.583779 q 0.69721,-1.476445 1.80455,-2.228339 1.121,-0.751893 2.59745,-0.751893 2.40606,0 3.54073,1.38075 1.13468,1.38075 1.13468,4.306299 v 7.792352 h 2.24201 v 1.449104 h -6.94476 v -1.449104 h 2.17365 v -6.999446 q 0,-2.665804 -0.6562,-3.650101 -0.65619,-0.997968 -2.31036,-0.997968 -1.74986,0 -2.6658,1.285054 -0.91595,1.271384 -0.91595,3.718456 v 6.644005 h 2.18733 v 1.449104 z" />
    <path
       inkscape:connector-curvature="0"
       id="path1016"
       style="font-style:normal;font-variant:normal;font-weight:normal;font-stretch:normal;font-family:'DejaVu Serif';-inkscape-font-specification:'DejaVu Serif';fill:#0000ff;fill-opacity:1;stroke:#0000ff;stroke-width:1;stroke-miterlimit:4;stroke-dasharray:none;stroke-opacity:1"
       d="m 180.8606,24.279335 h 2.40606 v 1.449104 h -4.92149 v -2.269351 q -0.73822,1.367079 -1.88657,2.023277 -1.13467,0.642527 -2.81618,0.642527 -2.67947,0 -4.38832,-2.118973 -1.69518,-2.132643 -1.69518,-5.550341 0,-3.417699 1.69518,-5.536672 1.69517,-2.118972 4.38832,-2.118972 1.68151,0 2.81618,0.656198 1.14835,0.642527 1.88657,2.009606 V 5.9057898 h -2.37871 V 4.4566857 h 4.89414 z m -2.51543,-5.099205 v -1.435434 q 0,-2.611121 -1.01163,-3.991871 -0.99797,-1.38075 -2.91188,-1.38075 -1.94126,0 -2.93922,1.531129 -0.9843,1.531128 -0.9843,4.552374 0,3.007574 0.9843,4.552374 0.99796,1.544799 2.93922,1.544799 1.91391,0 2.91188,-1.367079 1.01163,-1.38075 1.01163,-4.005542 z" />
    <path
       inkscape:connector-curvature="0"
       id="path1018"
       style="font-style:normal;font-variant:normal;font-weight:normal;font-stretch:normal;font-family:'DejaVu Serif';-inkscape-font-specification:'DejaVu Serif';fill:#0000ff;fill-opacity:1;stroke:#0000ff;stroke-width:1;stroke-miterlimit:4;stroke-dasharray:none;stroke-opacity:1"
       d="m 195.24227,21.162395 v -3.075929 h -3.23997 q -1.8729,0 -2.78885,0.806577 -0.91594,0.806577 -0.91594,2.474413 0,1.517458 0.92962,2.40606 0.92961,0.888601 2.51542,0.888601 1.57214,0 2.5291,-0.970626 0.97062,-0.970626 0.97062,-2.529096 z m 2.51543,-4.511362 v 7.628302 h 2.24201 v 1.449104 h -4.75744 v -1.572141 q -0.83391,1.011639 -1.92758,1.490117 -1.09366,0.478477 -2.55644,0.478477 -2.41973,0 -3.84149,-1.285054 -1.42176,-1.285055 -1.42176,-3.472382 0,-2.25568 1.62682,-3.499723 1.62683,-1.244042 4.59339,-1.244042 h 3.52706 v -0.997968 q 0,-1.654165 -1.01163,-2.556438 -0.99797,-0.915943 -2.81619,-0.915943 -1.50378,0 -2.39239,0.68354 -0.8886,0.683539 -1.10733,2.023277 H 186.616 v -2.93922 q 1.3124,-0.560503 2.54277,-0.833919 1.24404,-0.287086 2.41973,-0.287086 3.02125,0 4.59339,1.503787 1.58581,1.490116 1.58581,4.347312 z" />
  </g>
  <g
     aria-label="La Tienda"
     style="font-style:normal;font-weight:normal;font-size:27.99778366px;line-height:1.25;font-family:sans-serif;letter-spacing:0px;word-spacing:0px;fill:#6ea8d0;fill-opacity:1;stroke:#3779a5;stroke-width:1;stroke-miterlimit:4;stroke-dasharray:none;stroke-opacity:1"
     id="text892"
     transform="translate(-4)">
    <path
       d="m 61.241165,25.728439 v -1.449104 h 2.597451 V 6.7807205 H 61.241165 V 5.3179457 h 7.970072 v 1.4627748 h -2.59745 V 24.046932 h 9.32348 v -3.417698 h 1.681508 v 5.099205 z"
       style="font-style:normal;font-variant:normal;font-weight:normal;font-stretch:normal;font-family:'DejaVu Serif';-inkscape-font-specification:'DejaVu Serif';fill:#6ea8d0;fill-opacity:1;stroke:#3779a5;stroke-width:1;stroke-miterlimit:4;stroke-dasharray:none;stroke-opacity:1"
       id="path934"
       inkscape:connector-curvature="0" />
    <path
       d="m 89.430339,21.162395 v -3.075929 h -3.239978 q -1.872898,0 -2.788842,0.806577 -0.915943,0.806577 -0.915943,2.474413 0,1.517458 0.929614,2.40606 0.929614,0.888601 2.515426,0.888601 1.572141,0 2.529097,-0.970626 0.970626,-0.970626 0.970626,-2.529096 z m 2.515426,-4.511362 v 7.628302 h 2.24201 v 1.449104 h -4.757436 v -1.572141 q -0.833918,1.011639 -1.927582,1.490117 -1.093663,0.478477 -2.556438,0.478477 -2.41973,0 -3.841493,-1.285054 -1.421762,-1.285055 -1.421762,-3.472382 0,-2.25568 1.626824,-3.499723 1.626824,-1.244042 4.593386,-1.244042 h 3.527065 v -0.997968 q 0,-1.654165 -1.011639,-2.556438 -0.997968,-0.915943 -2.816183,-0.915943 -1.503787,0 -2.392389,0.68354 -0.888601,0.683539 -1.107334,2.023277 h -1.298725 v -2.93922 q 1.312396,-0.560503 2.542767,-0.833919 1.244042,-0.287086 2.419731,-0.287086 3.021245,0 4.593386,1.503787 1.585812,1.490116 1.585812,4.347312 z"
       style="font-style:normal;font-variant:normal;font-weight:normal;font-stretch:normal;font-family:'DejaVu Serif';-inkscape-font-specification:'DejaVu Serif';fill:#6ea8d0;fill-opacity:1;stroke:#3779a5;stroke-width:1;stroke-miterlimit:4;stroke-dasharray:none;stroke-opacity:1"
       id="path936"
       inkscape:connector-curvature="0" />
    <path
       d="m 109.22565,25.728439 v -1.449104 h 2.61112 V 6.94477 h -6.00148 v 3.185295 h -1.68151 V 5.3179457 h 18.12747 v 4.8121193 h -1.6815 V 6.94477 h -6.00148 v 17.334565 h 2.61112 v 1.449104 z"
       style="font-style:normal;font-variant:normal;font-weight:normal;font-stretch:normal;font-family:'DejaVu Serif';-inkscape-font-specification:'DejaVu Serif';fill:#6ea8d0;fill-opacity:1;stroke:#3779a5;stroke-width:1;stroke-miterlimit:4;stroke-dasharray:none;stroke-opacity:1"
       id="path938"
       inkscape:connector-curvature="0" />
    <path
       d="m 125.3025,6.685025 q 0,-0.6288565 0.45114,-1.0936635 0.4648,-0.4648069 1.10733,-0.4648069 0.62886,0 1.07999,0.4648069 0.46481,0.464807 0.46481,1.0936635 0,0.6425272 -0.45114,1.0936634 -0.45113,0.4511361 -1.09366,0.4511361 -0.64253,0 -1.10733,-0.4511361 Q 125.3025,7.3275522 125.3025,6.685025 Z m 3.21264,17.59431 h 2.37871 v 1.449104 h -7.3002 v -1.449104 h 2.40606 V 12.659161 h -2.40606 v -1.462774 h 4.92149 z"
       style="font-style:normal;font-variant:normal;font-weight:normal;font-stretch:normal;font-family:'DejaVu Serif';-inkscape-font-specification:'DejaVu Serif';fill:#6ea8d0;fill-opacity:1;stroke:#3779a5;stroke-width:1;stroke-miterlimit:4;stroke-dasharray:none;stroke-opacity:1"
       id="path940"
       inkscape:connector-curvature="0" />
    <path
       d="m 146.72463,18.728993 h -10.84094 v 0.109367 q 0,2.93922 1.10733,4.443007 1.10734,1.490117 3.26732,1.490117 1.65417,0 2.70682,-0.86126 1.06632,-0.874931 1.49012,-2.58378 h 2.02327 q -0.60151,2.392389 -2.22833,3.595419 -1.61316,1.203029 -4.25162,1.203029 -3.1853,0 -5.12655,-2.091631 -1.92758,-2.105302 -1.92758,-5.577683 0,-3.44504 1.90024,-5.550342 1.90024,-2.105302 4.98984,-2.105302 3.29466,0 5.05819,2.036948 1.76353,2.023277 1.83189,5.892111 z m -2.96656,-1.449104 q -0.082,-2.542767 -1.08,-3.827822 -0.98429,-1.298725 -2.84352,-1.298725 -1.73619,0 -2.73416,1.298725 -0.99797,1.298726 -1.2167,3.827822 z"
       style="font-style:normal;font-variant:normal;font-weight:normal;font-stretch:normal;font-family:'DejaVu Serif';-inkscape-font-specification:'DejaVu Serif';fill:#6ea8d0;fill-opacity:1;stroke:#3779a5;stroke-width:1;stroke-miterlimit:4;stroke-dasharray:none;stroke-opacity:1"
       id="path942"
       inkscape:connector-curvature="0" />
    <path
       d="m 149.2674,25.728439 v -1.449104 h 2.26935 V 12.659161 h -2.40606 v -1.462774 h 4.92148 v 2.583779 q 0.69721,-1.476445 1.80455,-2.228339 1.121,-0.751893 2.59745,-0.751893 2.40606,0 3.54073,1.38075 1.13468,1.38075 1.13468,4.306299 v 7.792352 h 2.24201 v 1.449104 h -6.94476 v -1.449104 h 2.17365 v -6.999446 q 0,-2.665804 -0.6562,-3.650101 -0.65619,-0.997968 -2.31036,-0.997968 -1.74986,0 -2.6658,1.285054 -0.91595,1.271384 -0.91595,3.718456 v 6.644005 h 2.18733 v 1.449104 z"
       style="font-style:normal;font-variant:normal;font-weight:normal;font-stretch:normal;font-family:'DejaVu Serif';-inkscape-font-specification:'DejaVu Serif';fill:#6ea8d0;fill-opacity:1;stroke:#3779a5;stroke-width:1;stroke-miterlimit:4;stroke-dasharray:none;stroke-opacity:1"
       id="path944"
       inkscape:connector-curvature="0" />
    <path
       d="m 180.8606,24.279335 h 2.40606 v 1.449104 h -4.92149 v -2.269351 q -0.73822,1.367079 -1.88657,2.023277 -1.13467,0.642527 -2.81618,0.642527 -2.67947,0 -4.38832,-2.118973 -1.69518,-2.132643 -1.69518,-5.550341 0,-3.417699 1.69518,-5.536672 1.69517,-2.118972 4.38832,-2.118972 1.68151,0 2.81618,0.656198 1.14835,0.642527 1.88657,2.009606 V 5.9057898 h -2.37871 V 4.4566857 h 4.89414 z m -2.51543,-5.099205 v -1.435434 q 0,-2.611121 -1.01163,-3.991871 -0.99797,-1.38075 -2.91188,-1.38075 -1.94126,0 -2.93922,1.531129 -0.9843,1.531128 -0.9843,4.552374 0,3.007574 0.9843,4.552374 0.99796,1.544799 2.93922,1.544799 1.91391,0 2.91188,-1.367079 1.01163,-1.38075 1.01163,-4.005542 z"
       style="font-style:normal;font-variant:normal;font-weight:normal;font-stretch:normal;font-family:'DejaVu Serif';-inkscape-font-specification:'DejaVu Serif';fill:#6ea8d0;fill-opacity:1;stroke:#3779a5;stroke-width:1;stroke-miterlimit:4;stroke-dasharray:none;stroke-opacity:1"
       id="path946"
       inkscape:connector-curvature="0" />
    <path
       d="m 195.24227,21.162395 v -3.075929 h -3.23997 q -1.8729,0 -2.78885,0.806577 -0.91594,0.806577 -0.91594,2.474413 0,1.517458 0.92962,2.40606 0.92961,0.888601 2.51542,0.888601 1.57214,0 2.5291,-0.970626 0.97062,-0.970626 0.97062,-2.529096 z m 2.51543,-4.511362 v 7.628302 h 2.24201 v 1.449104 h -4.75744 v -1.572141 q -0.83391,1.011639 -1.92758,1.490117 -1.09366,0.478477 -2.55644,0.478477 -2.41973,0 -3.84149,-1.285054 -1.42176,-1.285055 -1.42176,-3.472382 0,-2.25568 1.62682,-3.499723 1.62683,-1.244042 4.59339,-1.244042 h 3.52706 v -0.997968 q 0,-1.654165 -1.01163,-2.556438 -0.99797,-0.915943 -2.81619,-0.915943 -1.50378,0 -2.39239,0.68354 -0.8886,0.683539 -1.10733,2.023277 H 186.616 v -2.93922 q 1.3124,-0.560503 2.54277,-0.833919 1.24404,-0.287086 2.41973,-0.287086 3.02125,0 4.59339,1.503787 1.58581,1.490116 1.58581,4.347312 z"
       style="font-style:normal;font-variant:normal;font-weight:normal;font-stretch:normal;font-family:'DejaVu Serif';-inkscape-font-specification:'DejaVu Serif';fill:#6ea8d0;fill-opacity:1;stroke:#3779a5;stroke-width:1;stroke-miterlimit:4;stroke-dasharray:none;stroke-opacity:1"
       id="path948"
       inkscape:connector-curvature="0" />
  </g>
  <g
     id="text900"
     style="font-style:normal;font-weight:normal;font-size:17.91965294px;line-height:1.25;font-family:sans-serif;letter-spacing:0px;word-spacing:0px;fill:#6ea8d0;fill-opacity:1;stroke:#3779a8;stroke-width:0.44799131;stroke-opacity:1"
     aria-label="De"
     transform="translate(8.7082729,1.7416546)">
    <path
       inkscape:connector-curvature="0"
       id="path923"
       style="font-style:normal;font-variant:normal;font-weight:normal;font-stretch:normal;font-family:'DejaVu Serif';-inkscape-font-specification:'DejaVu Serif';fill:#6ea8d0;fill-opacity:1;stroke:#3779a8;stroke-width:0.44799131;stroke-opacity:1"
       d="m 71.168839,44.533154 h 1.627468 q 2.546201,0 3.902425,-1.452472 1.364973,-1.452472 1.364973,-4.164919 0,-2.712448 -1.356223,-4.14742 -1.356224,-1.434972 -3.911175,-1.434972 h -1.627468 z m -3.438684,0.927482 v -0.927482 h 1.662468 V 33.333371 h -1.662468 v -0.936232 h 5.1974 q 3.377434,0 5.258648,1.723717 1.889963,1.723716 1.889963,4.794907 0,3.07994 -1.889963,4.812407 -1.889963,1.732466 -5.258648,1.732466 z" />
    <path
       inkscape:connector-curvature="0"
       id="path925"
       style="font-style:normal;font-variant:normal;font-weight:normal;font-stretch:normal;font-family:'DejaVu Serif';-inkscape-font-specification:'DejaVu Serif';fill:#6ea8d0;fill-opacity:1;stroke:#3779a8;stroke-width:0.44799131;stroke-opacity:1"
       d="m 90.838458,40.980723 h -6.938615 v 0.07 q 0,1.881213 0.708736,2.843694 0.708736,0.953732 2.091209,0.953732 1.05873,0 1.732467,-0.551239 0.682487,-0.559989 0.953731,-1.653718 h 1.294975 q -0.384992,1.53122 -1.426222,2.301205 -1.03248,0.769985 -2.721197,0.769985 -2.038711,0 -3.281187,-1.338724 -1.233726,-1.347474 -1.233726,-3.569931 0,-2.204957 1.216226,-3.552431 1.216227,-1.347474 3.193689,-1.347474 2.108709,0 3.237437,1.303725 1.128728,1.294975 1.172477,3.771177 z m -1.898713,-0.927482 q -0.0525,-1.627469 -0.691237,-2.449953 -0.629987,-0.831234 -1.819964,-0.831234 -1.111229,0 -1.749966,0.831234 -0.638738,0.831234 -0.778735,2.449953 z" />
  </g>
  <g
     aria-label="Shialeweb"
     style="font-style:normal;font-weight:normal;font-size:19.34497452px;line-height:1.25;font-family:sans-serif;letter-spacing:0px;word-spacing:0px;fill:#6ea8d0;fill-opacity:1;stroke:#316c93;stroke-width:0.4836244;stroke-opacity:1"
     id="text1092">
    <path
       d="m 115.74619,43.224318 q 0,0.916242 -0.3306,1.643568 -0.32116,0.717879 -0.92569,1.218506 -0.60453,0.500627 -1.47354,0.765109 -0.86901,0.255036 -1.95528,0.255036 -1.04848,0 -1.96472,-0.170024 -0.9068,-0.160578 -1.52077,-0.481735 v -1.68135 q 0.32115,0.151132 0.72732,0.302265 0.41562,0.141687 0.86901,0.255036 0.4534,0.11335 0.93514,0.188916 0.48173,0.06612 0.95402,0.06612 1.51133,0 2.22921,-0.566747 0.72732,-0.566747 0.72732,-1.624675 0,-0.510073 -0.14168,-0.887905 -0.13224,-0.377831 -0.48174,-0.689542 -0.34005,-0.321157 -0.91624,-0.613976 -0.57619,-0.302266 -1.45465,-0.65176 -0.84068,-0.330602 -1.4641,-0.71788 -0.61398,-0.396723 -1.02014,-0.887904 -0.39673,-0.491181 -0.59509,-1.114603 -0.18891,-0.623422 -0.18891,-1.416868 0,-0.831229 0.30226,-1.482989 0.30227,-0.651759 0.85012,-1.095711 0.54786,-0.453398 1.30352,-0.689543 0.76511,-0.236144 1.68135,-0.236144 1.12405,0 2.0214,0.217253 0.89735,0.207807 1.59634,0.53841 l -0.63287,1.473543 q -0.61398,-0.273928 -1.39798,-0.47229 -0.77455,-0.207807 -1.60578,-0.207807 -1.15239,0 -1.78525,0.53841 -0.63287,0.528964 -0.63287,1.43576 0,0.538409 0.14168,0.935133 0.14169,0.387277 0.47229,0.708434 0.33061,0.311711 0.86902,0.595084 0.54785,0.273928 1.3413,0.585639 0.85956,0.340049 1.50188,0.698989 0.65176,0.35894 1.08626,0.812337 0.43451,0.453398 0.65176,1.048483 0.2267,0.595085 0.2267,1.407422 z"
       style="font-style:normal;font-variant:normal;font-weight:normal;font-stretch:normal;font-family:'Droid Sans';-inkscape-font-specification:'Droid Sans';fill:#6ea8d0;fill-opacity:1;stroke:#316c93;stroke-width:0.4836244;stroke-opacity:1"
       id="path1094"
       inkscape:connector-curvature="0" />
    <path
       d="m 124.76692,46.917622 v -6.678173 q 0,-1.227952 -0.50063,-1.841928 -0.49118,-0.613977 -1.54911,-0.613977 -0.7651,0 -1.28462,0.245591 -0.51952,0.24559 -0.84068,0.727325 -0.31171,0.481736 -0.4534,1.180724 -0.13224,0.698988 -0.13224,1.605784 v 5.374654 h -1.71913 V 32.219975 h 1.71913 v 4.363954 l -0.0756,1.360194 h 0.0945 q 0.23615,-0.406169 0.55731,-0.698989 0.3306,-0.302265 0.71788,-0.500626 0.38727,-0.198362 0.82178,-0.29282 0.43451,-0.09446 0.8879,-0.09446 1.72858,0 2.5976,0.906796 0.87845,0.89735 0.87845,2.880965 v 6.772631 z"
       style="font-style:normal;font-variant:normal;font-weight:normal;font-stretch:normal;font-family:'Droid Sans';-inkscape-font-specification:'Droid Sans';fill:#6ea8d0;fill-opacity:1;stroke:#316c93;stroke-width:0.4836244;stroke-opacity:1"
       id="path1096"
       inkscape:connector-curvature="0" />
    <path
       d="m 131.41675,46.917622 h -1.71913 V 36.546146 h 1.71913 z m -1.85137,-13.176875 q 0,-0.566747 0.28337,-0.821784 0.29282,-0.255036 0.71788,-0.255036 0.20781,0 0.38728,0.06612 0.18892,0.05667 0.32116,0.188915 0.14168,0.132241 0.21725,0.340049 0.085,0.198361 0.085,0.481735 0,0.547856 -0.30226,0.821783 -0.29282,0.264483 -0.70844,0.264483 -0.42506,0 -0.71788,-0.264483 -0.28337,-0.264482 -0.28337,-0.821783 z"
       style="font-style:normal;font-variant:normal;font-weight:normal;font-stretch:normal;font-family:'Droid Sans';-inkscape-font-specification:'Droid Sans';fill:#6ea8d0;fill-opacity:1;stroke:#316c93;stroke-width:0.4836244;stroke-opacity:1"
       id="path1098"
       inkscape:connector-curvature="0" />
    <path
       d="m 140.56972,46.917622 -0.34949,-1.43576 h -0.0756 q -0.31171,0.42506 -0.62342,0.736771 -0.31171,0.302266 -0.6801,0.500627 -0.36838,0.198362 -0.82178,0.292819 -0.4534,0.09446 -1.04848,0.09446 -0.65176,0 -1.19962,-0.188915 -0.54785,-0.17947 -0.95402,-0.557302 -0.39672,-0.387277 -0.62342,-0.96347 -0.2267,-0.585639 -0.2267,-1.379085 0,-1.54911 1.08626,-2.380339 1.09572,-0.831229 3.32492,-0.906796 l 1.73803,-0.06612 v -0.65176 q 0,-0.632867 -0.14169,-1.057928 -0.13224,-0.42506 -0.39672,-0.680097 -0.25504,-0.264482 -0.64232,-0.377831 -0.37783,-0.11335 -0.86901,-0.11335 -0.784,0 -1.4641,0.226699 -0.67065,0.226699 -1.29407,0.547856 l -0.60453,-1.294073 q 0.69899,-0.377832 1.55855,-0.642314 0.85957,-0.264482 1.80415,-0.264482 0.96347,0 1.66246,0.198362 0.70843,0.188916 1.16183,0.613976 0.46284,0.415615 0.68954,1.067374 0.2267,0.65176 0.2267,1.577447 v 7.103233 z m -3.15489,-1.199616 q 0.57619,0 1.06738,-0.179469 0.49118,-0.17947 0.85012,-0.53841 0.35894,-0.368386 0.5573,-0.916242 0.2078,-0.557301 0.2078,-1.303519 v -0.935133 l -1.35074,0.06612 q -0.85012,0.03778 -1.42632,0.188916 -0.57619,0.151132 -0.92568,0.42506 -0.34005,0.264482 -0.49119,0.651759 -0.15113,0.377832 -0.15113,0.859567 0,0.869013 0.4534,1.275182 0.46284,0.406168 1.20906,0.406169 z"
       style="font-style:normal;font-variant:normal;font-weight:normal;font-stretch:normal;font-family:'Droid Sans';-inkscape-font-specification:'Droid Sans';fill:#6ea8d0;fill-opacity:1;stroke:#316c93;stroke-width:0.4836244;stroke-opacity:1"
       id="path1100"
       inkscape:connector-curvature="0" />
    <path
       d="M 146.71893,46.917622 H 144.9998 V 32.219975 h 1.71913 z"
       style="font-style:normal;font-variant:normal;font-weight:normal;font-stretch:normal;font-family:'Droid Sans';-inkscape-font-specification:'Droid Sans';fill:#6ea8d0;fill-opacity:1;stroke:#316c93;stroke-width:0.4836244;stroke-opacity:1"
       id="path1102"
       inkscape:connector-curvature="0" />
    <path
       d="m 154.12443,47.106537 q -1.03904,0 -1.8986,-0.349494 -0.85957,-0.349494 -1.48299,-1.020145 -0.61398,-0.670651 -0.95403,-1.662459 -0.34005,-0.991807 -0.34005,-2.266989 0,-1.284627 0.31171,-2.295326 0.31172,-1.0107 0.87846,-1.709688 0.56675,-0.708434 1.35075,-1.07682 0.79345,-0.368386 1.74747,-0.368386 0.93513,0 1.68135,0.340049 0.74622,0.330602 1.26574,0.944578 0.51952,0.604531 0.79344,1.464098 0.28338,0.850121 0.28338,1.889157 v 1.067374 h -6.53649 q 0.0472,1.823038 0.76511,2.682604 0.72733,0.859567 2.15364,0.859567 0.48174,0 0.8879,-0.04723 0.41562,-0.04723 0.79345,-0.132241 0.38728,-0.09446 0.74622,-0.226699 0.35894,-0.141687 0.72732,-0.311711 v 1.530218 q -0.37783,0.17947 -0.74621,0.311711 -0.35894,0.132241 -0.74622,0.217253 -0.37783,0.08501 -0.79345,0.122795 -0.40617,0.03778 -0.8879,0.03778 z m -0.42506,-9.322993 q -1.07682,0 -1.70969,0.736772 -0.62342,0.736771 -0.72732,2.144194 h 4.64732 q 0,-0.642314 -0.13224,-1.171278 -0.12279,-0.53841 -0.39672,-0.916241 -0.26448,-0.377832 -0.6801,-0.585639 -0.41561,-0.207808 -1.00125,-0.207808 z"
       style="font-style:normal;font-variant:normal;font-weight:normal;font-stretch:normal;font-family:'Droid Sans';-inkscape-font-specification:'Droid Sans';fill:#6ea8d0;fill-opacity:1;stroke:#316c93;stroke-width:0.4836244;stroke-opacity:1"
       id="path1104"
       inkscape:connector-curvature="0" />
    <path
       d="m 168.25533,46.917622 -1.58689,-5.818606 q -0.0378,-0.170024 -0.0945,-0.377832 -0.0567,-0.217253 -0.11335,-0.453397 -0.0567,-0.236145 -0.1228,-0.481736 -0.0567,-0.24559 -0.11335,-0.481735 -0.13224,-0.547856 -0.27392,-1.133494 h -0.0567 q -0.13224,0.595084 -0.25503,1.14294 -0.10391,0.472289 -0.2267,0.972916 -0.11335,0.500627 -0.21726,0.850121 l -1.62467,5.780823 h -1.99306 l -2.65427,-10.371476 h 1.80415 l 1.23739,5.51634 q 0.0945,0.425061 0.18892,0.925688 0.0945,0.491181 0.17947,0.982362 0.085,0.481735 0.15113,0.916241 0.0661,0.425061 0.10391,0.698988 h 0.0567 q 0.0472,-0.24559 0.1228,-0.651759 0.085,-0.415615 0.17947,-0.869012 0.1039,-0.462844 0.2078,-0.906796 0.10391,-0.453398 0.19836,-0.765109 l 1.6908,-5.846943 h 1.85138 l 1.62467,5.846943 q 0.085,0.321157 0.18892,0.755663 0.11335,0.434506 0.21725,0.887904 0.1039,0.443952 0.18892,0.859567 0.085,0.415615 0.12279,0.689542 h 0.0567 q 0.0283,-0.24559 0.085,-0.651759 0.0661,-0.415615 0.15113,-0.906796 0.085,-0.491181 0.17947,-1.001253 0.1039,-0.519519 0.20781,-0.963471 l 1.29407,-5.51634 h 1.75692 l -2.68261,10.371476 z"
       style="font-style:normal;font-variant:normal;font-weight:normal;font-stretch:normal;font-family:'Droid Sans';-inkscape-font-specification:'Droid Sans';fill:#6ea8d0;fill-opacity:1;stroke:#316c93;stroke-width:0.4836244;stroke-opacity:1"
       id="path1106"
       inkscape:connector-curvature="0" />
    <path
       d="m 178.91018,47.106537 q -1.03904,0 -1.89861,-0.349494 -0.85956,-0.349494 -1.48299,-1.020145 -0.61397,-0.670651 -0.95402,-1.662459 -0.34005,-0.991807 -0.34005,-2.266989 0,-1.284627 0.31171,-2.295326 0.31171,-1.0107 0.87846,-1.709688 0.56675,-0.708434 1.35075,-1.07682 0.79344,-0.368386 1.74747,-0.368386 0.93513,0 1.68135,0.340049 0.74622,0.330602 1.26574,0.944578 0.51951,0.604531 0.79344,1.464098 0.28337,0.850121 0.28337,1.889157 v 1.067374 h -6.53648 q 0.0472,1.823038 0.76511,2.682604 0.72732,0.859567 2.15364,0.859567 0.48173,0 0.8879,-0.04723 0.41562,-0.04723 0.79345,-0.132241 0.38728,-0.09446 0.74622,-0.226699 0.35894,-0.141687 0.72732,-0.311711 v 1.530218 q -0.37783,0.17947 -0.74622,0.311711 -0.35894,0.132241 -0.74621,0.217253 -0.37783,0.08501 -0.79345,0.122795 -0.40617,0.03778 -0.8879,0.03778 z m -0.42506,-9.322993 q -1.07682,0 -1.70969,0.736772 -0.62342,0.736771 -0.72733,2.144194 h 4.64733 q 0,-0.642314 -0.13224,-1.171278 -0.1228,-0.53841 -0.39672,-0.916241 -0.26449,-0.377832 -0.6801,-0.585639 -0.41562,-0.207808 -1.00125,-0.207808 z"
       style="font-style:normal;font-variant:normal;font-weight:normal;font-stretch:normal;font-family:'Droid Sans';-inkscape-font-specification:'Droid Sans';fill:#6ea8d0;fill-opacity:1;stroke:#316c93;stroke-width:0.4836244;stroke-opacity:1"
       id="path1108"
       inkscape:connector-curvature="0" />
    <path
       d="m 189.8484,36.35723 q 0.8879,0 1.61523,0.340049 0.72733,0.340048 1.2374,1.020145 0.51952,0.670651 0.80289,1.671904 0.28337,1.001254 0.28337,2.323664 0,1.331856 -0.28337,2.342556 -0.28337,1.001253 -0.80289,1.68135 -0.51007,0.680097 -1.2374,1.029591 -0.72733,0.340048 -1.61523,0.340048 -0.5573,0 -1.0107,-0.122795 -0.4534,-0.122795 -0.82178,-0.321157 -0.35894,-0.207807 -0.64232,-0.481735 -0.27392,-0.273928 -0.49118,-0.576193 h -0.11335 l -0.34949,1.312965 h -1.25629 V 32.219975 h 1.71913 v 3.551616 q 0,0.330603 -0.009,0.708434 -0.009,0.368386 -0.0283,0.689543 -0.0189,0.377832 -0.0378,0.736772 h 0.0756 q 0.21726,-0.330603 0.49118,-0.613977 0.27393,-0.283373 0.63287,-0.491181 0.36839,-0.207807 0.82179,-0.321157 0.45339,-0.122795 1.02014,-0.122795 z m -0.3306,1.426314 q -0.75567,0 -1.26574,0.245591 -0.50062,0.236144 -0.81234,0.727325 -0.30226,0.491181 -0.4345,1.227953 -0.1228,0.736771 -0.1228,1.728579 0,0.954025 0.1228,1.700242 0.13224,0.736772 0.4345,1.246844 0.31172,0.500627 0.82179,0.765109 0.51007,0.255036 1.27518,0.255036 1.27518,0 1.87027,-1.029591 0.60453,-1.029591 0.60453,-2.956531 0,-1.964724 -0.60453,-2.937641 -0.59509,-0.972916 -1.88916,-0.972916 z"
       style="font-style:normal;font-variant:normal;font-weight:normal;font-stretch:normal;font-family:'Droid Sans';-inkscape-font-specification:'Droid Sans';fill:#6ea8d0;fill-opacity:1;stroke:#316c93;stroke-width:0.4836244;stroke-opacity:1"
       id="path1110"
       inkscape:connector-curvature="0" />
  </g>
  <g
     id="g1122"
     transform="matrix(-0.39324754,0,0,0.39324754,49.247818,0.19918797)">
    <path
       id="path4970"
       d="m 39.66369,0.44392 c -0.20986,0.0222 -0.4104,0.0963 -0.59282,0.22832 C 37.60402,1.73389 36.51142,3.041 36.50159,5.05964 35.5626,3.43634 35.72171,2.31215 33.13108,2.14993 31.19396,2.02864 30.33245,5.82274 31.43769,7.38485 c 2.44582,3.45698 2.46145,3.52333 5.0092,6.41308 1.51948,-3.24058 7.85346,-6.48992 7.0587,-9.66984 -0.38301,-1.53235 -2.37281,-3.83936 -3.8419,-3.68417 z"
       style="fill:#000000;fill-opacity:1;fill-rule:evenodd;stroke:none;stroke-width:1px;stroke-linecap:butt;stroke-linejoin:miter;stroke-opacity:1"
       inkscape:connector-curvature="0" />
    <path
       id="path5212"
       d="m 84.71652,0.41104 c -13.53243,8.6132 -27.29608,16.95312 -40.68695,25.73264 -0.75314,0.5767 -1.50668,1.15305 -2.25982,1.72976 l -0.0608,-9.32097 -11.44879,0.44386 -0.0746,17.74872 C 23.38985,41.94847 16.59383,47.15146 9.79853,52.35487 l 2.06359,5.17649 2.45401,-1.85214 v 3.81569 c -1.28755,1.52704 -3.62978,4.35053 -6.23314,7.47977 -2.86751,3.44672 -5.72602,6.86033 -6.67225,7.90538 -3.1e-4,3e-4 0,0.003 0,0.004 v 0 c -0.58069,0.64111 -0.97255,1.18222 -1.20178,1.68775 -0.22923,0.50553 -0.29956,1.03078 -0.059,1.48682 0.24084,0.45605 0.71722,0.71481 1.20778,0.85848 0.49058,0.14368 1.04309,0.20105 1.66708,0.22286 1.80391,0.0629 3.91247,-0.27836 5.83062,-1.31879 0,0.17674 -0.11291,0.36606 -0.0466,0.53336 0.18522,0.46791 0.61529,0.79785 1.08847,0.99548 0.47317,0.19763 1.0176,0.2993 1.63464,0.35983 0.87042,0.0853 1.81873,0.0489 2.78589,-0.12786 v 33.60513 l 78.04784,12.8864 v 0.0512 l 0.0405,-0.0439 0.0425,0.008 c 0.008,-0.0117 -0.008,-0.0198 0,-0.0311 v -0.0219 c 9.09104,-9.69115 18.0015,-19.5158 27.13609,-29.15745 V 41.60472 c 0.78904,-0.89508 1.57426,-1.79211 2.35289,-2.69419 1.81218,-2.57017 1.45637,-5.8707 0.85174,-8.71271 -1.78568,-3.31723 -5.65126,-5.06264 -8.52341,-7.54006 C 104.41686,15.2426 94.56747,7.8272 84.71834,0.41204 Z M 84.5749,3.63128 h 0.002 l 34.20691,25.75454 c 1.11806,0.93476 1.55178,1.7706 1.56387,2.6814 0.0111,0.80059 -0.34762,1.77449 -1.26242,2.93346 -0.003,0.004 -0.006,0.008 -0.009,0.0128 -0.12485,0.15803 -0.26001,0.31881 -0.40663,0.48403 l -3.05897,3.46682 -5.71126,6.47335 -2.85663,3.23667 c -0.004,0.005 -0.009,0.01 -0.0122,0.0146 l -5.56763,6.31078 -2.5289,2.86405 c -0.18567,0.17274 -0.37106,0.33443 -0.55637,0.48587 -7.9e-4,6.6e-4 -0.003,0.002 -0.004,0.004 -0.18395,0.15022 -0.36829,0.29018 -0.55231,0.42011 -0.002,7.2e-4 -0.004,0.004 -0.007,0.006 -0.91946,0.64787 -1.84195,1.04631 -2.79191,1.24024 -0.27661,0.0513 -0.55434,0.0924 -0.83553,0.11141 -0.16307,0.0129 -0.32882,0.0223 -0.49569,0.0238 -0.0363,2.5e-4 -0.0728,-0.002 -0.10921,-0.002 -0.004,-3e-5 -0.009,3e-5 -0.0121,0 -0.21114,-0.002 -0.42385,-0.0125 -0.64134,-0.033 -0.0174,-7.3e-4 -0.0352,-0.004 -0.0527,-0.006 -0.20888,-0.0209 -0.42023,-0.0512 -0.63525,-0.0895 -0.038,-0.007 -0.0753,-0.0111 -0.1133,-0.0182 -0.19225,-0.0369 -0.38938,-0.0826 -0.5867,-0.13334 -0.0432,-0.0111 -0.0865,-0.0193 -0.12948,-0.0311 -0.68152,-0.18525 -1.3925,-0.4519 -2.13843,-0.80734 L 88.96723,58.78997 C 88.24946,58.36035 87.59206,57.8515 87.04122,57.27574 L 50.66532,28.1772 c 0.007,-0.004 0.01,-0.008 0.0162,-0.0128 L 48.42576,26.35976 84.57282,3.63181 Z m -45.69825,17.60625 0.0548,8.80952 c -1.9631,1.50318 -3.92613,3.00657 -5.88925,4.50978 l 0.0571,-13.09647 5.77799,-0.22283 z m 6.81188,10.76941 c 13.84994,10.77328 27.6485,21.61354 41.53058,32.34481 0.7515,0.44331 1.55368,0.76876 2.37718,1.0046 v 3.19832 c -2.65734,-0.36122 -5.31545,-0.72111 -7.97311,-1.08132 -2.7518,-0.37295 -5.50449,-0.74558 -8.25635,-1.11787 -2.75359,-0.37301 -5.50088,-0.7451 -8.25434,-1.11785 -2.75193,-0.3721 -5.50278,-0.74552 -8.25431,-1.11786 -2.75144,-0.37232 -5.50152,-0.74485 -8.25232,-1.11786 -2.75076,-0.373 -5.5024,-0.74554 -8.25231,-1.11968 -2.74984,-0.37414 -5.49749,-0.74945 -8.24619,-1.12516 -2.7487,-0.37571 -5.49895,-0.75291 -8.24631,-1.13065 -2.23254,-0.30698 -4.46269,-0.61417 -6.6944,-0.92242 v -5.17465 z m 71.01957,12.82431 v 26.38289 c 8e-4,-5.7e-4 0.003,-7.2e-4 0.004,-0.002 v 0.0146 c -0.002,0.002 -0.004,0.005 -0.007,0.008 -0.0288,8.18799 -0.0173,16.33176 -0.007,24.48328 l -24.25517,26.09794 c -0.024,-18.61798 0.002,-37.35747 0.002,-56.03715 3.50954,0.0625 7.0249,-1.46797 9.0231,-4.2212 5.0309,-5.60735 10.20135,-11.12218 15.23815,-16.72585 z m -93.14443,16.02628 7.1538,0.97721 -12.56159,14.79699 c -3.28124,2.19579 -9.8101,2.47454 -7.24072,-0.75072 z m 16.50461,2.28868 7.30147,0.98268 -12.82051,14.86094 C 31.201,81.19508 24.54108,81.4746 27.16279,78.23546 Z m 16.65231,2.29051 7.30144,0.98087 -13.57108,15.83813 c -2.93222,3.03157 -10.00617,2.48479 -7.38439,-0.75436 z m 16.48439,2.28869 7.30142,0.98086 -14.23466,16.89024 c -3.84744,3.70764 -10.0082,2.48478 -7.3864,-0.75437 z m 16.38927,2.79098 -0.0142,52.4845 -43.0196,-7.10533 -0.27312,-30.25521 c 1.07127,-0.22932 2.18136,-0.68961 3.24912,-1.34801 -0.0577,0.24591 -0.20349,0.50953 -0.2104,0.74524 -0.0173,0.58761 0.14743,1.1524 0.51792,1.60555 0.37047,0.45316 0.93134,0.76885 1.59219,0.92972 0.12235,0.0298 0.24841,0.0498 0.37427,0.0694 l -0.29333,16.70028 29.00544,4.8477 0.0282,-1.5197 0.48151,-26.83771 c 1.01192,-1.21766 1.26158,-1.5164 2.42369,-2.91519 2.94383,-3.54347 5.30617,-6.39034 6.13814,-7.40124 z m -72.31034,8.04785 c -0.01,0.18143 -0.11912,0.37395 -0.0704,0.55161 0.13195,0.48408 0.50403,0.88111 0.95897,1.13613 0.45504,0.25503 0.99585,0.40306 1.61248,0.49683 1.74187,0.26469 3.82297,-0.0677 5.73957,-1.08498 -0.0197,0.19549 -0.13734,0.40083 -0.10522,0.59181 0.0528,0.313 0.19847,0.60092 0.40057,0.853 l 0.26911,31.40777 -8.92395,-1.47403 V 78.61904 c 0.0393,-0.0199 0.0808,-0.0343 0.11932,-0.0549 z m 16.33266,2.47864 c -0.0342,0.21256 -0.16098,0.43654 -0.14367,0.64295 0.0446,0.52952 0.29605,1.02746 0.70809,1.39367 0.41216,0.36624 0.9594,0.60492 1.59023,0.74707 1.74434,0.39268 3.86429,-0.07 5.83262,-1.21102 -0.047,0.22987 -0.18228,0.47418 -0.17802,0.69593 0.0204,1.06246 0.82232,1.94965 2.01098,2.30147 L 43.70587,115.42614 28.929,112.98583 28.67615,82.25207 c 1.55168,0.0981 3.30194,-0.30835 4.94042,-1.20919 z M 78.12115,84.33801 77.73069,106.107 54.40413,102.20911 54.6651,87.36097 c 0.42426,-0.13077 0.85286,-0.29311 1.28065,-0.48952 0.51568,-0.23677 1.01886,-0.59094 1.52542,-0.91876 -0.0705,0.2696 -0.22636,0.55808 -0.24276,0.81465 -0.0393,0.61596 0.093,1.20738 0.44912,1.6914 0.35611,0.484 0.92861,0.82755 1.60838,0.98451 1.39075,0.32074 3.00148,-0.0809 4.61069,-0.89135 0.52058,-0.26223 1.02977,-0.64107 1.54162,-0.99184 -0.0764,0.28019 -0.238,0.58224 -0.26098,0.84754 -0.0555,0.64063 0.0555,1.25117 0.40461,1.75715 0.34902,0.50598 0.94041,0.86512 1.64076,1.00826 1.42928,0.29169 3.06629,-0.20644 4.70982,-1.10507 1.64352,-0.89863 3.29538,-2.24171 4.63091,-3.85587 0.007,-0.007 0.13161,-0.1584 0.1396,-0.16805 0.0812,-0.098 1.1201,-1.34722 1.41821,-1.70601 z M 40.25442,99.02176 a 1.7949538,1.6205663 0 0 0 -1.79448,1.62015 1.7949538,1.6205663 0 0 0 1.79448,1.62017 1.7949538,1.6205663 0 0 0 1.79452,-1.62017 1.7949538,1.6205663 0 0 0 -1.79452,-1.62015 z"
       style="color:#000000;font-style:normal;font-variant:normal;font-weight:normal;font-stretch:normal;font-size:medium;line-height:normal;font-family:sans-serif;text-indent:0;text-align:start;text-decoration:none;text-decoration-line:none;text-decoration-style:solid;text-decoration-color:#000000;letter-spacing:normal;word-spacing:normal;text-transform:none;writing-mode:lr-tb;direction:ltr;baseline-shift:baseline;text-anchor:start;white-space:normal;clip-rule:nonzero;display:inline;overflow:visible;visibility:visible;opacity:1;isolation:auto;mix-blend-mode:normal;color-interpolation:sRGB;color-interpolation-filters:linearRGB;solid-color:#000000;solid-opacity:1;fill:#000000;fill-opacity:1;fill-rule:evenodd;stroke:none;stroke-width:3.86071086;stroke-linecap:butt;stroke-linejoin:miter;stroke-miterlimit:4;stroke-dasharray:none;stroke-dashoffset:0;stroke-opacity:1;color-rendering:auto;image-rendering:auto;shape-rendering:auto;text-rendering:auto;enable-background:accumulate"
       inkscape:connector-curvature="0" />
  </g>
  <g
     transform="matrix(0.01982031,0,0,0.01982031,82.087798,35.476486)"
     id="layer1">
    <path
       d="m -1660.5,-321.21 c 152.52,152.52 244.03,454.5 274.53,905.96 0,-152.17 -9.1336,-286.38 -27.379,-402.67 91.261,-26.838 182.26,-46.84 273,-60.031 2.4414,67.617 -1.1459,137.79 -10.741,210.5 -78.294,17.431 -156.59,43.54 -234.88,78.336 77.409,-25.803 154.82,-45.539 232.23,-59.216 -1.0936,7.5138 -2.2283,15.044 -3.4489,22.612 2.2462,-7.7372 4.374,-15.443 6.4058,-23.124 91.429,-15.972 182.86,-23.485 274.29,-22.54 -1.9914,7.5979 -4.0287,15.194 -6.1598,22.786 3.1923,-7.5817 6.2623,-15.167 9.2226,-22.755 93.46,1.1584 186.92,11.159 280.38,29.993 -1.9434,5.22 -3.9142,10.433 -5.9167,15.64 2.7279,-5.066 5.3994,-10.138 8.0215,-15.217 9.5275,1.9335 19.055,3.9483 28.583,6.0655 -9.0802,-3.0267 -18.161,-5.9204 -27.242,-8.7136 36.229,-70.695 62.235,-142.59 77.982,-215.7 7.4912,1.5517 14.981,3.1371 22.469,4.7843 -7.3398,-2.3488 -14.682,-4.6217 -22.026,-6.8433 16.443,-77.307 21.436,-155.96 14.988,-235.96 8.4643,1.569 16.913,3.1876 25.34,4.873 -8.4972,-2.5491 -17.014,-5.0118 -25.549,-7.3952 -0.55814,-6.6769 -1.1872,-13.362 -1.9046,-20.058 -0.23017,6.4457 -0.51231,12.88 -0.82067,19.309 -110.4,-30.587 -223.95,-47.33 -340.68,-50.222 -1.9576,-7.9943 -4.0357,-15.992 -6.2428,-23.993 1.1003,7.9775 2.0998,15.95 3.0513,23.922 -11.136,-0.2517 -22.296,-0.39193 -33.49,-0.39179 -97.499,10e-4 -197.19003,9.5773 -299.06003,28.683 -2.9137,-6.7582 -5.9371,-13.488 -9.0882,-20.184 2.155,6.8687 4.2053,13.782 6.2057,20.716 -91.81,17.374 -185.39,42.492 -280.74,75.371 97.02,-25.091 192.2,-44.436 285.55,-58.061 17.782,66.377 28.618,135.69 32.452,207.97 -90.465,16.894 -181.19,43.165 -272.17,78.84 -39.542,-252.02 -121.92,-419.79 -247.15,-503.28 z m 805.8,192.18 c 4.7152,-0.0132 9.4249,-0.007 14.13,0.0117 7.2213,70.544 8.5988,140.84 4.1466,210.9 -20.404,-0.96779 -40.823,-1.4616 -61.255,-1.4613 -74.945,8.05e-4 -150.07,6.518 -225.38,19.543 -4.124,-71.369 -19.251,-139.86 -45.398,-205.46 107,-15.386 211.59,-23.236 313.76,-23.535 z m 19.921,0.0486 c 114.91,0.7698 226.75,11.13 335.51,31.099 -3.8975,78.436 -13.609,155.58 -29.155,231.43 -96.285,-27.815 -192.87,-44.703 -289.76,-50.671 4.2834,-70.373 -1.2533,-140.99 -16.603,-211.86 z m -42.069,231.89 c 12.969,0.007 25.934,0.16756 38.892,0.45755 -5.4984,68.182 -16.544,136.13 -33.115,203.85 -14.755,-0.61662 -29.51,-0.92676 -44.266,-0.92654 -76.809,8.9e-4 -153.62,8.3818 -230.43,25.097 17.721,-73.217 25.582,-143.85 23.573,-211.9 81.998,-11.103 163.78,-16.631 245.35,-16.581 z m 57.106,0.95228 c 97.161,3.1662 194.02,14.269 290.57,33.299 -15.372,74.076 -36.303,146.92 -62.797,218.52 -91.174,-27.842 -182.34,-43.909 -273.51,-48.201 24.452,-67.644 39.702,-135.52 45.741,-203.62 z m -106.38,375.65 c -150.99,0 -301.22,22.878 -450.69,68.633 298.94,-48.806 600.92,-48.806 905.96,0 -152.52,-45.756 -304.27,-68.633 -455.27,-68.633 z m -276.82,59.482 c -54.906,9.1511 -54.906,91.511 9.1511,91.511 64.058,0 64.058,-82.36 9.1511,-91.511 36.604,18.302 36.604,73.209 -9.1511,73.209 -45.7551,0 -45.755,-54.907 -9.1511,-73.209 z m 457.55,0 c -54.907,9.1511 -54.907,91.511 9.1511,91.511 64.0581,0 64.058,-82.36 9.1511,-91.511 36.604,18.302 36.604,73.209 -9.1511,73.209 -45.7551,0 -45.755,-54.907 -9.1511,-73.209 z"
       id="path38"
       inkscape:connector-curvature="0" />
  </g>
</svg>
